LexendDeca-Light.ufo
<glyph name="exclam" format="2">
  <advance width="248"/>
  <unicode hex="0021"/>
  <note>
exclam
</note>
  <outline>
    <contour>
      <point x="139.0" y="241.0" type="qcurve"/>
      <point x="115.0" y="241.0" type="line"/>
      <point x="104.0" y="335.0"/>
      <point x="99.0" y="542.0"/>
      <point x="99.0" y="630.0" type="qcurve"/>
      <point x="99.0" y="700.0" type="line"/>
      <point x="155.0" y="700.0" type="line"/>
      <point x="155.0" y="630.0" type="line" smooth="yes"/>
      <point x="155.0" y="537.0"/>
      <point x="150.0" y="328.0"/>
    </contour>
    <contour>
      <point x="168.0" y="40.0" type="qcurve" smooth="yes"/>
      <point x="168.0" y="18.0"/>
      <point x="144.0" y="-10.0"/>
      <point x="124.0" y="-10.0" type="qcurve" smooth="yes"/>
      <point x="103.0" y="-10.0"/>
      <point x="80.0" y="16.0"/>
      <point x="80.0" y="40.0" type="qcurve" smooth="yes"/>
      <point x="80.0" y="62.0"/>
      <point x="104.0" y="90.0"/>
      <point x="124.0" y="90.0" type="qcurve" smooth="yes"/>
      <point x="145.0" y="90.0"/>
      <point x="168.0" y="64.0"/>
    </contour>
  </outline>
</glyph>
<glyph name="quotedbl" format="2">
  <advance width="381"/>
  <unicode hex="0022"/>
  <note>
quotedbl
</note>
  <outline>
    <contour>
      <point x="50.0" y="442.0" type="line"/>
      <point x="83.0" y="700.0" type="line"/>
      <point x="153.0" y="700.0" type="line"/>
      <point x="86.0" y="442.0" type="line"/>
    </contour>
    <contour>
      <point x="228.0" y="442.0" type="line"/>
      <point x="261.0" y="700.0" type="line"/>
      <point x="331.0" y="700.0" type="line"/>
      <point x="264.0" y="442.0" type="line"/>
    </contour>
  </outline>
</glyph>
<glyph name="dollar" format="2">
  <advance width="593"/>
  <unicode hex="0024"/>
  <note>
dollar
</note>
  <outline>
    <contour>
      <point x="276.0" y="363.0" type="line"/>
      <point x="325.0" y="330.0" type="line"/>
      <point x="325.0" y="-91.0" type="line"/>
      <point x="276.0" y="-91.0" type="line"/>
    </contour>
    <contour>
      <point x="329.0" y="330.0" type="line"/>
      <point x="280.0" y="363.0" type="line"/>
      <point x="280.0" y="782.0" type="line"/>
      <point x="329.0" y="782.0" type="line"/>
    </contour>
    <contour>
      <point x="53.0" y="103.0" type="qcurve"/>
      <point x="90.0" y="139.0" type="line"/>
      <point x="130.0" y="95.0"/>
      <point x="234.0" y="40.0"/>
      <point x="303.0" y="40.0" type="qcurve" smooth="yes"/>
      <point x="383.0" y="40.0"/>
      <point x="489.0" y="121.0"/>
      <point x="489.0" y="183.0" type="qcurve" smooth="yes"/>
      <point x="489.0" y="249.0"/>
      <point x="387.0" y="307.0"/>
      <point x="290.0" y="331.0" type="qcurve" smooth="yes"/>
      <point x="192.0" y="355.0"/>
      <point x="87.0" y="440.0"/>
      <point x="87.0" y="519.0" type="qcurve"/>
      <point x="87.0" y="600.0"/>
      <point x="213.0" y="705.0"/>
      <point x="305.0" y="705.0" type="qcurve"/>
      <point x="386.0" y="705.0"/>
      <point x="494.0" y="645.0"/>
      <point x="527.0" y="600.0" type="qcurve"/>
      <point x="490.0" y="564.0" type="line"/>
      <point x="461.0" y="603.0"/>
      <point x="368.0" y="655.0"/>
      <point x="305.0" y="655.0" type="qcurve"/>
      <point x="233.0" y="655.0"/>
      <point x="138.0" y="578.0"/>
      <point x="138.0" y="518.0" type="qcurve"/>
      <point x="138.0" y="465.0"/>
      <point x="220.0" y="409.0"/>
      <point x="321.0" y="382.0" type="qcurve" smooth="yes"/>
      <point x="422.0" y="355.0"/>
      <point x="540.0" y="270.0"/>
      <point x="540.0" y="186.0" type="qcurve" smooth="yes"/>
      <point x="540.0" y="102.0"/>
      <point x="405.0" y="-10.0"/>
      <point x="301.0" y="-10.0" type="qcurve" smooth="yes"/>
      <point x="225.9747899159664" y="-10.0"/>
      <point x="92.67637509703162" y="55.18488129332087"/>
    </contour>
  </outline>
</glyph>
<glyph name="percent" format="2">
  <advance width="849"/>
  <unicode hex="0025"/>
  <note>
percent
</note>
  <outline>
    <contour>
      <point x="352.0" y="518.0" type="qcurve"/>
      <point x="352.0" y="438.0"/>
      <point x="264.0" y="329.0"/>
      <point x="198.0" y="329.0" type="qcurve"/>
      <point x="130.0" y="329.0"/>
      <point x="45.0" y="436.0"/>
      <point x="45.0" y="518.0" type="qcurve"/>
      <point x="45.0" y="601.0"/>
      <point x="131.0" y="709.0"/>
      <point x="199.0" y="709.0" type="qcurve"/>
      <point x="267.0" y="709.0"/>
      <point x="352.0" y="601.0"/>
    </contour>
    <contour>
      <point x="94.0" y="518.0" type="qcurve"/>
      <point x="94.0" y="451.0"/>
      <point x="149.0" y="375.0"/>
      <point x="199.0" y="375.0" type="qcurve"/>
      <point x="248.0" y="375.0"/>
      <point x="303.0" y="450.0"/>
      <point x="303.0" y="518.0" type="qcurve"/>
      <point x="303.0" y="587.0"/>
      <point x="248.0" y="663.0"/>
      <point x="198.0" y="663.0" type="qcurve"/>
      <point x="150.0" y="663.0"/>
      <point x="94.0" y="585.0"/>
    </contour>
    <contour>
      <point x="795.0" y="180.0" type="qcurve"/>
      <point x="795.0" y="100.0"/>
      <point x="707.0" y="-9.0"/>
      <point x="641.0" y="-9.0" type="qcurve"/>
      <point x="573.0" y="-9.0"/>
      <point x="488.0" y="98.0"/>
      <point x="488.0" y="180.0" type="qcurve"/>
      <point x="488.0" y="263.0"/>
      <point x="574.0" y="371.0"/>
      <point x="642.0" y="371.0" type="qcurve"/>
      <point x="710.0" y="371.0"/>
      <point x="795.0" y="263.0"/>
    </contour>
    <contour>
      <point x="537.0" y="180.0" type="qcurve"/>
      <point x="537.0" y="113.0"/>
      <point x="592.0" y="37.0"/>
      <point x="642.0" y="37.0" type="qcurve"/>
      <point x="691.0" y="37.0"/>
      <point x="746.0" y="112.0"/>
      <point x="746.0" y="180.0" type="qcurve"/>
      <point x="746.0" y="249.0"/>
      <point x="691.0" y="325.0"/>
      <point x="641.0" y="325.0" type="qcurve"/>
      <point x="593.0" y="325.0"/>
      <point x="537.0" y="247.0"/>
    </contour>
    <contour>
      <point x="216.0" y="0.0" type="line"/>
      <point x="158.0" y="0.0" type="line"/>
      <point x="427.0" y="405.0" type="line"/>
      <point x="624.0" y="700.0" type="line"/>
      <point x="682.0" y="700.0" type="line"/>
      <point x="458.0" y="364.0" type="line"/>
    </contour>
  </outline>
</glyph>
<glyph name="parenleft" format="2">
  <advance width="350"/>
  <unicode hex="0028"/>
  <note>
parenleft
</note>
  <outline>
    <contour>
      <point x="20.0" y="258.0" type="qcurve" smooth="yes"/>
      <point x="20.0" y="397.0"/>
      <point x="149.0" y="626.0"/>
      <point x="271.0" y="702.0" type="qcurve"/>
      <point x="300.0" y="669.0" type="line"/>
      <point x="187.0" y="590.0"/>
      <point x="70.0" y="381.0"/>
      <point x="70.0" y="258.0" type="qcurve" smooth="yes"/>
      <point x="70.0" y="135.0"/>
      <point x="187.0" y="-74.0"/>
      <point x="300.0" y="-153.0" type="qcurve"/>
      <point x="270.0" y="-186.0" type="line"/>
      <point x="148.0" y="-110.0"/>
      <point x="20.0" y="118.0"/>
    </contour>
  </outline>
</glyph>
<glyph name="comma" format="2">
  <advance width="233"/>
  <unicode hex="002C"/>
  <note>
comma
</note>
  <outline>
    <contour>
      <point x="114.0" y="75.0" type="qcurve"/>
      <point x="145.0" y="75.0"/>
      <point x="178.0" y="32.0"/>
      <point x="178.0" y="-6.0" type="qcurve" smooth="yes"/>
      <point x="178.0" y="-53.0"/>
      <point x="131.0" y="-120.0"/>
      <point x="78.0" y="-151.0" type="qcurve"/>
      <point x="60.0" y="-125.0" type="line"/>
      <point x="88.0" y="-108.0"/>
      <point x="118.0" y="-70.0"/>
      <point x="118.0" y="-49.0" type="qcurve" smooth="yes"/>
      <point x="118.0" y="-37.0"/>
      <point x="112.0" y="-17.0"/>
      <point x="95.0" y="-3.0" type="qcurve" smooth="yes"/>
      <point x="85.81858736630694" y="4.1410987150946"/>
      <point x="73.0" y="25.421052631578945"/>
      <point x="73.0" y="37.0" type="qcurve"/>
      <point x="73.0" y="54.1"/>
      <point x="95.0" y="75.0"/>
    </contour>
  </outline>
</glyph>
<glyph name="five" format="2">
  <advance width="568"/>
  <unicode hex="0035"/>
  <outline>
    <contour>
      <point x="508.0" y="239.0" type="qcurve" smooth="yes"/>
      <point x="508.0" y="134.0"/>
      <point x="364.0" y="-7.0"/>
      <point x="257.0" y="-7.0" type="qcurve"/>
      <point x="188.0" y="-7.0"/>
      <point x="76.0" y="56.0"/>
      <point x="39.0" y="115.0" type="qcurve"/>
      <point x="73.0" y="151.0" type="line"/>
      <point x="112.0" y="91.0"/>
      <point x="211.0" y="43.0"/>
      <point x="258.0" y="43.0" type="qcurve"/>
      <point x="342.0" y="43.0"/>
      <point x="457.0" y="159.0"/>
      <point x="457.0" y="240.0" type="qcurve"/>
      <point x="457.0" y="315.0"/>
      <point x="356.0" y="420.0"/>
      <point x="274.0" y="420.0" type="qcurve"/>
      <point x="230.0" y="420.0"/>
      <point x="132.0" y="384.0"/>
      <point x="100.0" y="361.0" type="qcurve"/>
      <point x="68.0" y="403.0" type="line"/>
      <point x="109.0" y="700.0" type="line"/>
      <point x="487.0" y="700.0" type="line"/>
      <point x="487.0" y="653.0" type="line"/>
      <point x="124.0" y="653.0" type="line"/>
      <point x="153.0" y="669.0" type="line"/>
      <point x="113.0" y="402.0" type="line"/>
      <point x="92.0" y="407.0" type="line"/>
      <point x="123.0" y="431.0"/>
      <point x="226.0" y="468.0"/>
      <point x="279.0" y="468.0" type="qcurve"/>
      <point x="376.0" y="468.0"/>
      <point x="508.0" y="339.0"/>
    </contour>
  </outline>
</glyph>
<glyph name="six" format="2">
  <advance width="589"/>
  <unicode hex="0036"/>
  <outline>
    <contour>
      <point x="529.0" y="224.0" type="qcurve" smooth="yes"/>
      <point x="529.0" y="124.0"/>
      <point x="392.0" y="-10.0"/>
      <point x="300.0" y="-10.0" type="qcurve"/>
      <point x="195.0" y="-10.0"/>
      <point x="60.0" y="129.0"/>
      <point x="60.0" y="240.0" type="qcurve" smooth="yes"/>
      <point x="60.0" y="287.0"/>
      <point x="109.0" y="429.0"/>
      <point x="157.0" y="510.0" type="qcurve"/>
      <point x="269.0" y="700.0" type="line"/>
      <point x="319.0" y="700.0" type="line"/>
      <point x="323.0" y="690.0" type="line"/>
      <point x="207.0" y="496.0" type="line" smooth="yes"/>
      <point x="180.0" y="451.0"/>
      <point x="131.0" y="347.0"/>
      <point x="98.0" y="275.0" type="qcurve"/>
      <point x="92.0" y="319.0" type="line"/>
      <point x="130.0" y="382.0"/>
      <point x="239.0" y="457.0"/>
      <point x="305.0" y="457.0" type="qcurve" smooth="yes"/>
      <point x="398.0" y="457.0"/>
      <point x="529.0" y="321.0"/>
    </contour>
    <contour>
      <point x="113.0" y="222.0" type="qcurve" smooth="yes"/>
      <point x="113.0" y="145.0"/>
      <point x="218.0" y="39.0"/>
      <point x="294.0" y="39.0" type="qcurve"/>
      <point x="371.0" y="39.0"/>
      <point x="476.0" y="145.0"/>
      <point x="476.0" y="222.0" type="qcurve" smooth="yes"/>
      <point x="476.0" y="299.0"/>
      <point x="371.0" y="407.0"/>
      <point x="294.0" y="407.0" type="qcurve" smooth="yes"/>
      <point x="218.0" y="407.0"/>
      <point x="113.0" y="299.0"/>
    </contour>
  </outline>
</glyph>
<glyph name="seven" format="2">
  <advance width="491"/>
  <unicode hex="0037"/>
  <outline>
    <contour>
      <point x="158.0" y="0.0" type="line"/>
      <point x="102.0" y="0.0" type="line"/>
      <point x="401.0" y="674.0" type="line"/>
      <point x="414.0" y="653.0" type="line"/>
      <point x="20.0" y="653.0" type="line"/>
      <point x="20.0" y="700.0" type="line"/>
      <point x="432.0" y="700.0" type="line"/>
      <point x="444.0" y="647.0" type="line"/>
    </contour>
  </outline>
</glyph>
<glyph name="greater" format="2">
  <advance width="489"/>
  <unicode hex="003E"/>
  <note>
greater
</note>
  <outline>
    <contour>
      <point x="410.0" y="264.0" type="line"/>
      <point x="410.0" y="241.0" type="line"/>
      <point x="60.0" y="443.0" type="line"/>
      <point x="83.0" y="480.0" type="line"/>
      <point x="435.0" y="278.0" type="line"/>
      <point x="435.0" y="227.0" type="line"/>
      <point x="83.0" y="25.0" type="line"/>
      <point x="60.0" y="62.0" type="line"/>
    </contour>
  </outline>
</glyph>
<glyph name="question" format="2">
  <advance width="498"/>
  <unicode hex="003F"/>
  <note>
question
</note>
  <outline>
    <contour>
      <point x="210.0" y="201.0" type="line"/>
      <point x="202.0" y="327.0" type="line"/>
      <point x="301.0" y="352.0"/>
      <point x="395.0" y="445.0"/>
      <point x="395.0" y="511.0" type="qcurve" smooth="yes"/>
      <point x="395.0" y="572.0"/>
      <point x="311.0" y="653.0"/>
      <point x="246.0" y="653.0" type="qcurve" smooth="yes"/>
      <point x="197.0" y="653.0"/>
      <point x="107.0" y="599.0"/>
      <point x="71.0" y="542.0" type="qcurve"/>
      <point x="35.0" y="573.0" type="line"/>
      <point x="76.0" y="635.0"/>
      <point x="187.0" y="703.0"/>
      <point x="248.0" y="703.0" type="qcurve" smooth="yes"/>
      <point x="333.0" y="703.0"/>
      <point x="448.0" y="592.0"/>
      <point x="448.0" y="511.0" type="qcurve" smooth="yes"/>
      <point x="448.0" y="433.0"/>
      <point x="330.0" y="311.0"/>
      <point x="241.0" y="291.0" type="qcurve"/>
      <point x="264.0" y="324.0" type="line"/>
      <point x="251.0" y="201.0" type="line"/>
    </contour>
    <contour>
      <point x="278.0" y="40.0" type="qcurve" smooth="yes"/>
      <point x="278.0" y="18.0"/>
      <point x="254.0" y="-10.0"/>
      <point x="234.0" y="-10.0" type="qcurve" smooth="yes"/>
      <point x="213.0" y="-10.0"/>
      <point x="190.0" y="16.0"/>
      <point x="190.0" y="40.0" type="qcurve" smooth="yes"/>
      <point x="190.0" y="62.0"/>
      <point x="214.0" y="90.0"/>
      <point x="234.0" y="90.0" type="qcurve" smooth="yes"/>
      <point x="255.0" y="90.0"/>
      <point x="278.0" y="64.0"/>
    </contour>
  </outline>
</glyph>
<glyph name="at" format="2">
  <advance width="979"/>
  <unicode hex="0040"/>
  <note>
at
</note>
  <outline>
    <contour>
      <point x="929.0" y="388.0" type="qcurve"/>
      <point x="929.0" y="239.0"/>
      <point x="782.0" y="55.0"/>
      <point x="689.0" y="55.0" type="qcurve"/>
      <point x="631.0" y="55.0"/>
      <point x="599.0" y="138.0"/>
      <point x="617.0" y="196.0" type="qcurve"/>
      <point x="627.0" y="229.0" type="line"/>
      <point x="644.0" y="224.0" type="line"/>
      <point x="618.0" y="145.0"/>
      <point x="502.0" y="55.0"/>
      <point x="429.0" y="55.0" type="qcurve"/>
      <point x="359.0" y="55.0"/>
      <point x="267.0" y="153.0"/>
      <point x="267.0" y="233.0" type="qcurve"/>
      <point x="267.0" y="298.0"/>
      <point x="310.0" y="404.0"/>
      <point x="344.0" y="441.0" type="qcurve" smooth="yes"/>
      <point x="375.0" y="474.0"/>
      <point x="455.0" y="510.0"/>
      <point x="496.0" y="510.0" type="qcurve"/>
      <point x="552.0" y="510.0"/>
      <point x="642.0" y="451.0"/>
      <point x="666.0" y="383.0" type="qcurve"/>
      <point x="647.0" y="376.0" type="line"/>
      <point x="665.0" y="501.0" type="line"/>
      <point x="713.0" y="501.0" type="line"/>
      <point x="656.0" y="191.0" type="line"/>
      <point x="654.0" y="180.0" type="line" smooth="yes"/>
      <point x="647.0" y="140.0"/>
      <point x="669.0" y="97.0"/>
      <point x="699.0" y="97.0" type="qcurve"/>
      <point x="766.8870967741935" y="97.0"/>
      <point x="882.0" y="256.0"/>
      <point x="882.0" y="385.0" type="qcurve"/>
      <point x="882.0" y="512.4519572953736"/>
      <point x="700.0" y="667.0"/>
      <point x="555.0" y="667.0" type="qcurve"/>
      <point x="355.0" y="667.0"/>
      <point x="97.0" y="395.3950892857143"/>
      <point x="97.0" y="218.0" type="qcurve"/>
      <point x="97.0" y="67.78823529411764"/>
      <point x="277.0" y="-118.0"/>
      <point x="422.0" y="-118.0" type="qcurve"/>
      <point x="460.74213836477986" y="-118.0"/>
      <point x="539.8251938920624" y="-101.66546193565036"/>
      <point x="576.0" y="-87.0" type="qcurve" smooth="yes"/>
      <point x="596.0611892291606" y="-78.55318348245869"/>
      <point x="633.1434295282064" y="-61.4758724843298"/>
      <point x="652.0" y="-51.0" type="qcurve"/>
      <point x="674.0" y="-89.0" type="line"/>
      <point x="619.0" y="-124.0"/>
      <point x="480.0" y="-162.0"/>
      <point x="421.0" y="-162.0" type="qcurve"/>
      <point x="254.0" y="-162.0"/>
      <point x="50.0" y="45.0"/>
      <point x="50.0" y="212.0" type="qcurve"/>
      <point x="50.0" y="320.0"/>
      <point x="126.0" y="497.0"/>
      <point x="191.0" y="562.0" type="qcurve" smooth="yes"/>
      <point x="258.0" y="629.0"/>
      <point x="440.0" y="710.0"/>
      <point x="556.0" y="710.0" type="qcurve"/>
      <point x="722.0" y="710.0"/>
      <point x="929.0" y="529.0"/>
    </contour>
    <contour>
      <point x="317.0" y="232.0" type="qcurve"/>
      <point x="317.0" y="173.0"/>
      <point x="383.4954954954955" y="100.0"/>
      <point x="438.0" y="100.0" type="qcurve"/>
      <point x="510.23762376237624" y="100.0"/>
      <point x="613.0315967814049" y="203.1579839070244"/>
      <point x="630.0" y="288.0" type="qcurve" smooth="yes"/>
      <point x="632.0" y="300.0"/>
      <point x="635.0" y="319.0"/>
      <point x="635.0" y="327.0" type="qcurve" smooth="yes"/>
      <point x="635.0" y="389.0"/>
      <point x="560.0" y="465.0"/>
      <point x="500.0" y="465.0" type="qcurve"/>
      <point x="433.0" y="465.0"/>
      <point x="317.0" y="336.0"/>
    </contour>
  </outline>
</glyph>
<glyph name="A" format="2">
  <advance width="647"/>
  <unicode hex="0041"/>
  <note>
A
</note>
  <outline>
    <contour>
      <point x="314.0" y="687.0" type="qcurve"/>
      <point x="331.0" y="687.0" type="line"/>
      <point x="310.0" y="622.0"/>
      <point x="281.0" y="542.0"/>
      <point x="257.0" y="478.0" type="qcurve"/>
      <point x="77.0" y="0.0" type="line"/>
      <point x="25.0" y="0.0" type="line"/>
      <point x="291.0" y="700.0" type="line"/>
      <point x="359.0" y="700.0" type="line"/>
      <point x="622.0" y="0.0" type="line"/>
      <point x="566.0" y="0.0" type="line"/>
      <point x="385.0" y="484.0" type="line" smooth="yes"/>
      <point x="362.0" y="546.0"/>
      <point x="334.0" y="624.0"/>
    </contour>
    <contour>
      <point x="321.0" y="211.0" type="line"/>
      <point x="134.0" y="211.0" type="line"/>
      <point x="153.0" y="261.0" type="line"/>
      <point x="321.0" y="261.0" type="line"/>
    </contour>
    <contour>
      <point x="515.0" y="211.0" type="line"/>
      <point x="321.0" y="211.0" type="line"/>
      <point x="321.0" y="261.0" type="line"/>
      <point x="496.0" y="261.0" type="line"/>
    </contour>
  </outline>
</glyph>
<glyph name="B" format="2">
  <advance width="661"/>
  <unicode hex="0042"/>
  <note>
B
</note>
  <outline>
    <contour>
      <point x="108.0" y="700.0" type="line"/>
      <point x="384.0" y="700.0" type="line"/>
      <point x="467.0" y="700.0"/>
      <point x="574.0" y="601.0"/>
      <point x="574.0" y="524.0" type="qcurve"/>
      <point x="574.0" y="450.0"/>
      <point x="466.0" y="352.0"/>
      <point x="383.0" y="351.0" type="qcurve"/>
      <point x="384.0" y="387.0" type="line"/>
      <point x="483.0" y="387.0"/>
      <point x="611.0" y="285.0"/>
      <point x="611.0" y="206.0" type="qcurve"/>
      <point x="611.0" y="116.0"/>
      <point x="489.0" y="0.0"/>
      <point x="394.0" y="0.0" type="qcurve"/>
      <point x="108.0" y="0.0" type="line"/>
    </contour>
    <contour>
      <point x="521.0" y="519.0" type="qcurve"/>
      <point x="521.0" y="576.0"/>
      <point x="444.0" y="650.0"/>
      <point x="376.0" y="650.0" type="qcurve"/>
      <point x="150.0" y="650.0" type="line"/>
      <point x="158.0" y="681.0" type="line"/>
      <point x="158.0" y="369.0" type="line"/>
      <point x="151.0" y="389.0" type="line"/>
      <point x="378.0" y="389.0" type="line"/>
      <point x="440.0" y="391.0"/>
      <point x="521.0" y="464.0"/>
    </contour>
    <contour>
      <point x="556.0" y="198.0" type="qcurve"/>
      <point x="556.0" y="260.0"/>
      <point x="458.0" y="339.0"/>
      <point x="383.0" y="339.0" type="qcurve"/>
      <point x="155.0" y="339.0" type="line"/>
      <point x="158.0" y="354.0" type="line"/>
      <point x="158.0" y="24.0" type="line"/>
      <point x="154.0" y="50.0" type="line"/>
      <point x="388.0" y="50.0" type="line"/>
      <point x="461.0" y="50.0"/>
      <point x="556.0" y="133.0"/>
    </contour>
  </outline>
</glyph>
<glyph name="D" format="2">
  <advance width="739"/>
  <unicode hex="0044"/>
  <note>
D
</note>
  <outline>
    <contour>
      <point x="108.0" y="700.0" type="line"/>
      <point x="363.0" y="700.0" type="line" smooth="yes"/>
      <point x="498.0" y="700.0"/>
      <point x="689.0" y="503.0"/>
      <point x="689.0" y="350.0" type="qcurve" smooth="yes"/>
      <point x="689.0" y="197.0"/>
      <point x="498.0" y="0.0"/>
      <point x="363.0" y="0.0" type="qcurve"/>
      <point x="108.0" y="0.0" type="line"/>
    </contour>
    <contour>
      <point x="144.0" y="50.0" type="line"/>
      <point x="358.0" y="50.0" type="line" smooth="yes"/>
      <point x="472.0" y="50.0"/>
      <point x="636.0" y="219.0"/>
      <point x="636.0" y="350.0" type="qcurve" smooth="yes"/>
      <point x="636.0" y="481.0"/>
      <point x="472.0" y="650.0"/>
      <point x="358.0" y="650.0" type="qcurve"/>
      <point x="141.0" y="650.0" type="line"/>
      <point x="158.0" y="665.0" type="line"/>
      <point x="158.0" y="33.0" type="line"/>
    </contour>
  </outline>
</glyph>
<glyph name="E" format="2">
  <advance width="585"/>
  <unicode hex="0045"/>
  <note>
E
</note>
  <outline>
    <contour>
      <point x="158.0" y="0.0" type="line"/>
      <point x="108.0" y="0.0" type="line"/>
      <point x="108.0" y="700.0" type="line"/>
      <point x="158.0" y="700.0" type="line"/>
    </contour>
    <contour>
      <point x="511.0" y="0.0" type="line"/>
      <point x="133.0" y="0.0" type="line"/>
      <point x="133.0" y="50.0" type="line"/>
      <point x="511.0" y="50.0" type="line"/>
    </contour>
    <contour>
      <point x="458.0" y="336.0" type="line"/>
      <point x="132.0" y="336.0" type="line"/>
      <point x="132.0" y="386.0" type="line"/>
      <point x="458.0" y="386.0" type="line"/>
    </contour>
    <contour>
      <point x="515.0" y="650.0" type="line"/>
      <point x="132.0" y="650.0" type="line"/>
      <point x="132.0" y="700.0" type="line"/>
      <point x="515.0" y="700.0" type="line"/>
    </contour>
  </outline>
</glyph>
<glyph name="G" format="2">
  <advance width="762"/>
  <unicode hex="0047"/>
  <note>
G
</note>
  <outline>
    <contour>
      <point x="50.0" y="347.0" type="qcurve"/>
      <point x="50.0" y="503.0"/>
      <point x="254.0" y="705.0"/>
      <point x="405.0" y="705.0" type="qcurve" smooth="yes"/>
      <point x="484.0" y="705.0"/>
      <point x="635.0" y="638.0"/>
      <point x="673.0" y="587.0" type="qcurve"/>
      <point x="639.0" y="552.0" type="line"/>
      <point x="600.0" y="597.0"/>
      <point x="469.0" y="655.0"/>
      <point x="407.0" y="655.0" type="qcurve" smooth="yes"/>
      <point x="278.0" y="655.0"/>
      <point x="103.0" y="481.0"/>
      <point x="103.0" y="347.0" type="qcurve"/>
      <point x="103.0" y="213.0"/>
      <point x="283.0" y="40.0"/>
      <point x="417.0" y="40.0" type="qcurve" smooth="yes"/>
      <point x="529.0" y="40.0"/>
      <point x="674.0" y="166.0"/>
      <point x="674.0" y="260.0" type="qcurve" smooth="yes"/>
      <point x="674.0" y="308.0" type="line"/>
      <point x="692.0" y="282.0" type="line"/>
      <point x="416.0" y="282.0" type="line"/>
      <point x="416.0" y="332.0" type="line"/>
      <point x="721.0" y="332.0" type="line"/>
      <point x="722.0" y="324.0"/>
      <point x="724.0" y="287.0"/>
      <point x="724.0" y="273.0" type="qcurve" smooth="yes"/>
      <point x="724.0" y="150.0"/>
      <point x="545.0" y="-10.0"/>
      <point x="415.0" y="-10.0" type="qcurve"/>
      <point x="259.0" y="-10.0"/>
      <point x="50.0" y="191.0"/>
    </contour>
  </outline>
</glyph>
<glyph name="H" format="2">
  <advance width="744"/>
  <unicode hex="0048"/>
  <note>
H
</note>
  <outline>
    <contour>
      <point x="108.0" y="700.0" type="line"/>
      <point x="158.0" y="700.0" type="line"/>
      <point x="158.0" y="0.0" type="line"/>
      <point x="108.0" y="0.0" type="line"/>
    </contour>
    <contour>
      <point x="586.0" y="700.0" type="line"/>
      <point x="636.0" y="700.0" type="line"/>
      <point x="636.0" y="0.0" type="line"/>
      <point x="586.0" y="0.0" type="line"/>
    </contour>
    <contour>
      <point x="137.0" y="324.0" type="line"/>
      <point x="137.0" y="374.0" type="line"/>
      <point x="604.0" y="374.0" type="line"/>
      <point x="604.0" y="324.0" type="line"/>
    </contour>
  </outline>
</glyph>
<glyph name="I" format="2">
  <advance width="412"/>
  <unicode hex="0049"/>
  <note>
I
</note>
  <outline>
    <contour>
      <point x="231.0" y="700.0" type="qcurve"/>
      <point x="231.0" y="0.0" type="line"/>
      <point x="181.0" y="0.0" type="line"/>
      <point x="181.0" y="700.0" type="line"/>
      <point x="208.0" y="700.0"/>
      <point x="204.0" y="700.0"/>
    </contour>
    <contour>
      <point x="344.0" y="700.0" type="line"/>
      <point x="344.0" y="650.0" type="line"/>
      <point x="68.0" y="650.0" type="line"/>
      <point x="68.0" y="700.0" type="line"/>
    </contour>
    <contour>
      <point x="344.0" y="50.0" type="line"/>
      <point x="344.0" y="0.0" type="line"/>
      <point x="68.0" y="0.0" type="line"/>
      <point x="68.0" y="50.0" type="line"/>
    </contour>
  </outline>
</glyph>
<glyph name="J" format="2">
  <advance width="623"/>
  <unicode hex="004A"/>
  <note>
J
</note>
  <outline>
    <contour>
      <point x="269.0" y="-10.0" type="qcurve"/>
      <point x="204.0" y="-10.0"/>
      <point x="100.0" y="56.0"/>
      <point x="68.0" y="117.0" type="qcurve"/>
      <point x="104.0" y="155.0" type="line"/>
      <point x="136.0" y="94.0"/>
      <point x="223.0" y="40.0"/>
      <point x="270.0" y="40.0" type="qcurve" smooth="yes"/>
      <point x="339.0" y="40.0"/>
      <point x="427.0" y="139.0"/>
      <point x="427.0" y="216.0" type="qcurve"/>
      <point x="427.0" y="700.0" type="line"/>
      <point x="481.0" y="700.0" type="line"/>
      <point x="481.0" y="213.0" type="line"/>
      <point x="481.0" y="116.0"/>
      <point x="362.0" y="-10.0"/>
    </contour>
    <contour>
      <point x="579.0" y="700.0" type="line"/>
      <point x="579.0" y="650.0" type="line"/>
      <point x="300.0" y="650.0" type="line"/>
      <point x="300.0" y="700.0" type="line"/>
    </contour>
  </outline>
</glyph>
<glyph name="K" format="2">
  <advance width="669"/>
  <unicode hex="004B"/>
  <note>
K
</note>
  <outline>
    <contour>
      <point x="108.0" y="0.0" type="line"/>
      <point x="108.0" y="700.0" type="line"/>
      <point x="158.0" y="700.0" type="line"/>
      <point x="158.0" y="0.0" type="line"/>
    </contour>
    <contour>
      <point x="137.0" y="217.0" type="line"/>
      <point x="137.0" y="284.0" type="line"/>
      <point x="561.0" y="700.0" type="line"/>
      <point x="631.0" y="700.0" type="line"/>
    </contour>
    <contour>
      <point x="581.0" y="0.0" type="line"/>
      <point x="288.0" y="388.0" type="line"/>
      <point x="324.0" y="422.0" type="line"/>
      <point x="644.0" y="0.0" type="line"/>
    </contour>
  </outline>
</glyph>
<glyph name="L" format="2">
  <advance width="536"/>
  <unicode hex="004C"/>
  <note>
L
</note>
  <outline>
    <contour>
      <point x="132.0" y="50.0" type="line"/>
      <point x="501.0" y="50.0" type="line"/>
      <point x="501.0" y="0.0" type="line"/>
      <point x="108.0" y="0.0" type="line"/>
      <point x="108.0" y="700.0" type="line"/>
      <point x="158.0" y="700.0" type="line"/>
      <point x="158.0" y="28.0" type="line"/>
    </contour>
  </outline>
</glyph>
<glyph name="M" format="2">
  <advance width="852"/>
  <unicode hex="004D"/>
  <note>
M
</note>
  <outline>
    <contour>
      <point x="108.0" y="700.0" type="line"/>
      <point x="156.0" y="700.0" type="line"/>
      <point x="437.0" y="243.0" type="line"/>
      <point x="416.0" y="243.0" type="line"/>
      <point x="701.0" y="700.0" type="line"/>
      <point x="744.0" y="700.0" type="line"/>
      <point x="744.0" y="0.0" type="line"/>
      <point x="694.0" y="0.0" type="line"/>
      <point x="694.0" y="351.0" type="line" smooth="yes"/>
      <point x="694.0" y="441.0"/>
      <point x="697.0" y="585.0"/>
      <point x="703.0" y="656.0" type="qcurve"/>
      <point x="718.0" y="637.0" type="line"/>
      <point x="445.0" y="205.0" type="line"/>
      <point x="403.0" y="205.0" type="line"/>
      <point x="139.0" y="631.0" type="line"/>
      <point x="149.0" y="656.0" type="line"/>
      <point x="155.0" y="589.0"/>
      <point x="158.0" y="448.0"/>
      <point x="158.0" y="351.0" type="qcurve"/>
      <point x="158.0" y="0.0" type="line"/>
      <point x="108.0" y="0.0" type="line"/>
    </contour>
  </outline>
</glyph>
<glyph name="N" format="2">
  <advance width="781"/>
  <unicode hex="004E"/>
  <note>
N
</note>
  <outline>
    <contour>
      <point x="623.0" y="417.0" type="qcurve"/>
      <point x="623.0" y="700.0" type="line"/>
      <point x="673.0" y="700.0" type="line"/>
      <point x="673.0" y="0.0" type="line"/>
      <point x="625.0" y="0.0" type="line"/>
      <point x="136.0" y="641.0" type="line"/>
      <point x="150.0" y="669.0" type="line"/>
      <point x="152.0" y="620.0"/>
      <point x="158.0" y="365.0"/>
      <point x="158.0" y="344.0" type="qcurve"/>
      <point x="158.0" y="0.0" type="line"/>
      <point x="108.0" y="0.0" type="line"/>
      <point x="108.0" y="700.0" type="line"/>
      <point x="154.0" y="700.0" type="line"/>
      <point x="640.0" y="63.0" type="line"/>
      <point x="628.0" y="37.0" type="line"/>
      <point x="624.0" y="79.0"/>
      <point x="624.0" y="301.0"/>
    </contour>
  </outline>
</glyph>
<glyph name="P" format="2">
  <advance width="611"/>
  <unicode hex="0050"/>
  <note>
P
</note>
  <outline>
    <contour>
      <point x="108.0" y="700.0" type="line"/>
      <point x="377.0" y="700.0" type="line" smooth="yes"/>
      <point x="457.0" y="700.0"/>
      <point x="561.0" y="586.0"/>
      <point x="561.0" y="498.0" type="qcurve" smooth="yes"/>
      <point x="561.0" y="404.0"/>
      <point x="457.0" y="283.0"/>
      <point x="377.0" y="283.0" type="qcurve"/>
      <point x="142.0" y="283.0" type="line"/>
      <point x="158.0" y="305.0" type="line"/>
      <point x="158.0" y="0.0" type="line"/>
      <point x="108.0" y="0.0" type="line"/>
    </contour>
    <contour>
      <point x="141.0" y="333.0" type="line"/>
      <point x="386.0" y="333.0" type="line" smooth="yes"/>
      <point x="439.0" y="333.0"/>
      <point x="508.0" y="427.0"/>
      <point x="508.0" y="500.0" type="qcurve" smooth="yes"/>
      <point x="508.0" y="565.0"/>
      <point x="439.0" y="650.0"/>
      <point x="386.0" y="650.0" type="qcurve"/>
      <point x="141.0" y="650.0" type="line"/>
      <point x="158.0" y="671.0" type="line"/>
      <point x="158.0" y="321.0" type="line"/>
    </contour>
  </outline>
</glyph>
<glyph name="R" format="2">
  <advance width="627"/>
  <unicode hex="0052"/>
  <note>
R
</note>
  <outline>
    <contour>
      <point x="575.0" y="489.0" type="qcurve"/>
      <point x="575.0" y="399.0"/>
      <point x="459.0" y="288.0"/>
      <point x="370.0" y="288.0" type="qcurve"/>
      <point x="133.0" y="288.0" type="line"/>
      <point x="133.0" y="338.0" type="line"/>
      <point x="376.0" y="338.0" type="line"/>
      <point x="440.0" y="338.0"/>
      <point x="522.0" y="422.0"/>
      <point x="522.0" y="487.0" type="qcurve"/>
      <point x="522.0" y="558.0"/>
      <point x="429.0" y="650.0"/>
      <point x="357.0" y="650.0" type="qcurve"/>
      <point x="133.0" y="650.0" type="line"/>
      <point x="158.0" y="679.0" type="line"/>
      <point x="158.0" y="0.0" type="line"/>
      <point x="108.0" y="0.0" type="line"/>
      <point x="108.0" y="700.0" type="line"/>
      <point x="360.0" y="700.0" type="line"/>
      <point x="453.0" y="700.0"/>
      <point x="575.0" y="579.0"/>
    </contour>
    <contour>
      <point x="370.0" y="301.0" type="line"/>
      <point x="412.0" y="327.0" type="line"/>
      <point x="602.0" y="0.0" type="line"/>
      <point x="544.0" y="0.0" type="line"/>
    </contour>
  </outline>
</glyph>
<glyph name="S" format="2">
  <advance width="593"/>
  <unicode hex="0053"/>
  <note>
S
</note>
  <outline>
    <contour>
      <point x="54.0" y="122.0" type="qcurve"/>
      <point x="90.0" y="159.0" type="line"/>
      <point x="134.0" y="95.0"/>
      <point x="242.0" y="40.0"/>
      <point x="303.0" y="40.0" type="qcurve" smooth="yes"/>
      <point x="383.0" y="40.0"/>
      <point x="489.0" y="121.0"/>
      <point x="489.0" y="183.0" type="qcurve" smooth="yes"/>
      <point x="489.0" y="252.0"/>
      <point x="378.0" y="308.0"/>
      <point x="290.0" y="333.0" type="qcurve" smooth="yes"/>
      <point x="194.0" y="360.0"/>
      <point x="87.0" y="436.0"/>
      <point x="87.0" y="519.0" type="qcurve"/>
      <point x="87.0" y="600.0"/>
      <point x="213.0" y="705.0"/>
      <point x="305.0" y="705.0" type="qcurve"/>
      <point x="386.0" y="705.0"/>
      <point x="490.0" y="637.0"/>
      <point x="527.0" y="580.0" type="qcurve"/>
      <point x="490.0" y="544.0" type="line"/>
      <point x="457.0" y="595.0"/>
      <point x="368.0" y="655.0"/>
      <point x="305.0" y="655.0" type="qcurve"/>
      <point x="233.0" y="655.0"/>
      <point x="138.0" y="578.0"/>
      <point x="138.0" y="518.0" type="qcurve"/>
      <point x="138.0" y="461.0"/>
      <point x="225.0" y="404.0"/>
      <point x="321.0" y="380.0" type="qcurve" smooth="yes"/>
      <point x="419.0" y="355.0"/>
      <point x="540.0" y="273.0"/>
      <point x="540.0" y="186.0" type="qcurve" smooth="yes"/>
      <point x="540.0" y="102.0"/>
      <point x="405.0" y="-10.0"/>
      <point x="301.0" y="-10.0" type="qcurve" smooth="yes"/>
      <point x="226.0" y="-10.0"/>
      <point x="98.0" y="58.0"/>
    </contour>
  </outline>
</glyph>
<glyph name="U" format="2">
  <advance width="753"/>
  <unicode hex="0055"/>
  <note>
U
</note>
  <outline>
    <contour>
      <point x="596.0" y="701.0" type="line"/>
      <point x="645.0" y="701.0" type="line"/>
      <point x="645.0" y="269.0" type="line"/>
      <point x="645.0" y="149.0"/>
      <point x="492.0" y="-6.0"/>
      <point x="374.0" y="-6.0" type="qcurve"/>
      <point x="258.0" y="-6.0"/>
      <point x="108.0" y="149.0"/>
      <point x="108.0" y="269.0" type="qcurve"/>
      <point x="108.0" y="701.0" type="line"/>
      <point x="158.0" y="701.0" type="line"/>
      <point x="158.0" y="278.0" type="line"/>
      <point x="158.0" y="176.0"/>
      <point x="280.0" y="44.0"/>
      <point x="374.0" y="44.0" type="qcurve"/>
      <point x="471.0" y="44.0"/>
      <point x="596.0" y="176.0"/>
      <point x="596.0" y="278.0" type="qcurve"/>
    </contour>
  </outline>
</glyph>
<glyph name="W" format="2">
  <advance width="917"/>
  <unicode hex="0057"/>
  <note>
W
</note>
  <outline>
    <contour>
      <point x="226.0" y="0.0" type="line"/>
      <point x="25.0" y="700.0" type="line"/>
      <point x="81.0" y="700.0" type="line"/>
      <point x="216.0" y="216.0" type="line" smooth="yes"/>
      <point x="234.0" y="153.0"/>
      <point x="249.0" y="96.0"/>
      <point x="260.0" y="38.0" type="qcurve"/>
      <point x="254.0" y="38.0" type="line"/>
      <point x="271.0" y="96.0"/>
      <point x="295.0" y="160.0"/>
      <point x="319.0" y="222.0" type="qcurve"/>
      <point x="429.0" y="502.0" type="line"/>
      <point x="480.0" y="502.0" type="line"/>
      <point x="597.0" y="216.0" type="line" smooth="yes"/>
      <point x="624.0" y="151.0"/>
      <point x="649.0" y="96.0"/>
      <point x="662.0" y="38.0" type="qcurve"/>
      <point x="656.0" y="38.0" type="line"/>
      <point x="668.0" y="96.0"/>
      <point x="681.0" y="152.0"/>
      <point x="701.0" y="222.0" type="qcurve"/>
      <point x="838.0" y="700.0" type="line"/>
      <point x="892.0" y="700.0" type="line"/>
      <point x="689.0" y="0.0" type="line"/>
      <point x="634.0" y="0.0" type="line"/>
      <point x="441.0" y="461.0" type="line"/>
      <point x="467.0" y="460.0" type="line"/>
      <point x="281.0" y="0.0" type="line"/>
    </contour>
  </outline>
</glyph>
<glyph name="X" format="2">
  <advance width="622"/>
  <unicode hex="0058"/>
  <note>
X
</note>
  <outline>
    <contour>
      <point x="530.0" y="700.0" type="line"/>
      <point x="587.0" y="700.0" type="line"/>
      <point x="329.0" y="338.0" type="line"/>
      <point x="301.0" y="374.0" type="line"/>
    </contour>
    <contour>
      <point x="30.0" y="700.0" type="line"/>
      <point x="92.0" y="700.0" type="line"/>
      <point x="314.0" y="390.0" type="line"/>
      <point x="597.0" y="0.0" type="line"/>
      <point x="535.0" y="0.0" type="line"/>
      <point x="308.0" y="314.0" type="line"/>
    </contour>
    <contour>
      <point x="82.0" y="0.0" type="line"/>
      <point x="25.0" y="0.0" type="line"/>
      <point x="287.0" y="374.0" type="line"/>
      <point x="319.0" y="338.0" type="line"/>
    </contour>
  </outline>
</glyph>
<glyph name="asciicircum" format="2">
  <advance width="588"/>
  <unicode hex="005E"/>
  <note>
asciicircum
</note>
  <outline>
    <contour>
      <point x="100.0" y="368.0" type="line"/>
      <point x="46.0" y="368.0" type="line"/>
      <point x="260.0" y="727.0" type="line"/>
      <point x="328.0" y="727.0" type="line"/>
      <point x="542.0" y="368.0" type="line"/>
      <point x="487.0" y="368.0" type="line"/>
      <point x="291.0" y="698.0" type="line"/>
      <point x="297.0" y="698.0" type="line"/>
    </contour>
  </outline>
</glyph>
<glyph name="grave" format="2">
  <advance width="244"/>
  <unicode hex="0060"/>
  <outline>
    <contour>
      <point x="215.0" y="620.0" type="line"/>
      <point x="194.0" y="589.0" type="line"/>
      <point x="40.0" y="690.0" type="line"/>
      <point x="73.0" y="735.0" type="line"/>
    </contour>
  </outline>
</glyph>
<glyph name="e" format="2">
  <advance width="540"/>
  <unicode hex="0065"/>
  <note>
e
</note>
  <outline>
    <contour>
      <point x="463.0" y="104.0" type="qcurve"/>
      <point x="489.0" y="67.0" type="line"/>
      <point x="456.0" y="35.0"/>
      <point x="355.0" y="-10.0"/>
      <point x="290.0" y="-10.0" type="qcurve"/>
      <point x="177.0" y="-10.0"/>
      <point x="32.0" y="140.0"/>
      <point x="32.0" y="261.0" type="qcurve"/>
      <point x="32.0" y="378.0"/>
      <point x="172.0" y="531.0"/>
      <point x="283.0" y="531.0" type="qcurve"/>
      <point x="392.0" y="531.0"/>
      <point x="512.0" y="392.0"/>
      <point x="512.0" y="282.0" type="qcurve"/>
      <point x="511.0" y="255.0" type="line"/>
      <point x="69.0" y="255.0" type="line"/>
      <point x="69.0" y="301.0" type="line"/>
      <point x="484.0" y="301.0" type="line"/>
      <point x="462.0" y="283.0" type="line"/>
      <point x="462.0" y="307.0" type="line"/>
      <point x="463.0" y="367.0"/>
      <point x="374.0" y="481.0"/>
      <point x="282.0" y="481.0" type="qcurve"/>
      <point x="197.0" y="481.0"/>
      <point x="85.0" y="370.0"/>
      <point x="85.0" y="264.0" type="qcurve"/>
      <point x="85.0" y="162.0"/>
      <point x="196.0" y="40.0"/>
      <point x="299.0" y="40.0" type="qcurve"/>
      <point x="336.0" y="40.0"/>
      <point x="414.0" y="64.0"/>
    </contour>
  </outline>
</glyph>
<glyph name="g" format="2">
  <advance width="610"/>
  <unicode hex="0067"/>
  <note>
g
</note>
  <outline>
    <contour>
      <point x="98.0" y="-167.0" type="qcurve"/>
      <point x="121.0" y="-120.0" type="line"/>
      <point x="151.0" y="-145.0"/>
      <point x="238.0" y="-180.0"/>
      <point x="292.0" y="-180.0" type="qcurve"/>
      <point x="382.0" y="-180.0"/>
      <point x="487.0" y="-70.0"/>
      <point x="487.0" y="38.0" type="qcurve"/>
      <point x="487.0" y="136.0" type="line"/>
      <point x="501.0" y="149.0" type="line"/>
      <point x="482.0" y="82.0"/>
      <point x="360.0" y="-10.0"/>
      <point x="280.0" y="-10.0" type="qcurve"/>
      <point x="174.0" y="-10.0"/>
      <point x="32.0" y="143.0"/>
      <point x="32.0" y="260.0" type="qcurve"/>
      <point x="32.0" y="378.0"/>
      <point x="177.0" y="531.0"/>
      <point x="280.0" y="531.0" type="qcurve"/>
      <point x="360.0" y="531.0"/>
      <point x="482.0" y="440.0"/>
      <point x="501.0" y="372.0" type="qcurve"/>
      <point x="482.0" y="385.0" type="line"/>
      <point x="487.0" y="520.0" type="line"/>
      <point x="537.0" y="520.0" type="line"/>
      <point x="537.0" y="32.0" type="line"/>
      <point x="537.0" y="-93.0"/>
      <point x="398.0" y="-230.0"/>
      <point x="289.0" y="-230.0" type="qcurve"/>
      <point x="229.0" y="-230.0"/>
      <point x="133.0" y="-193.0"/>
    </contour>
    <contour>
      <point x="488.0" y="261.0" type="qcurve"/>
      <point x="488.0" y="357.0"/>
      <point x="374.0" y="481.0"/>
      <point x="287.0" y="481.0" type="qcurve"/>
      <point x="198.0" y="481.0"/>
      <point x="85.0" y="357.0"/>
      <point x="85.0" y="261.0" type="qcurve"/>
      <point x="85.0" y="166.0"/>
      <point x="197.0" y="40.0"/>
      <point x="287.0" y="40.0" type="qcurve"/>
      <point x="373.0" y="40.0"/>
      <point x="488.0" y="164.0"/>
    </contour>
  </outline>
</glyph>
<glyph name="h" format="2">
  <advance width="560"/>
  <unicode hex="0068"/>
  <note>
h
</note>
  <outline>
    <contour>
      <point x="311.0" y="531.0" type="qcurve"/>
      <point x="401.0" y="531.0"/>
      <point x="488.0" y="426.0"/>
      <point x="488.0" y="315.0" type="qcurve"/>
      <point x="488.0" y="0.0" type="line"/>
      <point x="438.0" y="0.0" type="line"/>
      <point x="438.0" y="313.0" type="line"/>
      <point x="438.0" y="400.0"/>
      <point x="370.0" y="483.0"/>
      <point x="300.0" y="483.0" type="qcurve"/>
      <point x="226.0" y="483.0"/>
      <point x="125.0" y="383.0"/>
      <point x="125.0" y="318.0" type="qcurve"/>
      <point x="125.0" y="0.0" type="line"/>
      <point x="99.0" y="0.0"/>
      <point x="101.0" y="0.0"/>
      <point x="75.0" y="0.0" type="qcurve"/>
      <point x="75.0" y="740.0" type="line"/>
      <point x="125.0" y="740.0" type="line"/>
      <point x="125.0" y="400.0" type="line"/>
      <point x="113.0" y="381.0" type="line"/>
      <point x="129.0" y="451.0"/>
      <point x="248.0" y="531.0"/>
    </contour>
  </outline>
</glyph>
<glyph name="k" format="2">
  <advance width="512"/>
  <unicode hex="006B"/>
  <note>
k
</note>
  <outline>
    <contour>
      <point x="125.0" y="0.0" type="line"/>
      <point x="75.0" y="0.0" type="line"/>
      <point x="75.0" y="740.0" type="line"/>
      <point x="125.0" y="740.0" type="line"/>
    </contour>
    <contour>
      <point x="410.0" y="520.0" type="line"/>
      <point x="476.0" y="520.0" type="line"/>
      <point x="117.0" y="172.0" type="line"/>
      <point x="117.0" y="235.0" type="line"/>
    </contour>
    <contour>
      <point x="504.0" y="0.0" type="line"/>
      <point x="438.0" y="0.0" type="line"/>
      <point x="198.0" y="278.0" type="line"/>
      <point x="232.0" y="315.0" type="line"/>
    </contour>
  </outline>
</glyph>
<glyph name="l" format="2">
  <advance width="200"/>
  <unicode hex="006C"/>
  <note>
l
</note>
  <outline>
    <contour>
      <point x="125.0" y="0.0" type="line"/>
      <point x="75.0" y="0.0" type="line"/>
      <point x="75.0" y="740.0" type="line"/>
      <point x="125.0" y="740.0" type="line"/>
    </contour>
  </outline>
</glyph>
<glyph name="o" format="2">
  <advance width="599"/>
  <unicode hex="006F"/>
  <note>
o
</note>
  <outline>
    <contour>
      <point x="300.0" y="531.0" type="qcurve"/>
      <point x="417.0" y="531.0"/>
      <point x="567.0" y="380.0"/>
      <point x="567.0" y="263.0" type="qcurve"/>
      <point x="567.0" y="144.0"/>
      <point x="417.0" y="-10.0"/>
      <point x="300.0" y="-10.0" type="qcurve"/>
      <point x="183.0" y="-10.0"/>
      <point x="32.0" y="144.0"/>
      <point x="32.0" y="263.0" type="qcurve"/>
      <point x="32.0" y="380.0"/>
      <point x="183.0" y="531.0"/>
    </contour>
    <contour>
      <point x="300.0" y="40.0" type="qcurve"/>
      <point x="393.0" y="40.0"/>
      <point x="514.0" y="166.0"/>
      <point x="514.0" y="263.0" type="qcurve"/>
      <point x="514.0" y="358.0"/>
      <point x="393.0" y="481.0"/>
      <point x="300.0" y="481.0" type="qcurve"/>
      <point x="206.0" y="481.0"/>
      <point x="85.0" y="358.0"/>
      <point x="85.0" y="263.0" type="qcurve"/>
      <point x="85.0" y="166.0"/>
      <point x="206.0" y="40.0"/>
    </contour>
  </outline>
</glyph>
<glyph name="t" format="2">
  <advance width="359"/>
  <unicode hex="0074"/>
  <note>
t
</note>
  <outline>
    <contour>
      <point x="202.0" y="659.0" type="line"/>
      <point x="202.0" y="0.0" type="line"/>
      <point x="152.0" y="0.0" type="line"/>
      <point x="152.0" y="659.0" type="line"/>
    </contour>
    <contour>
      <point x="342.0" y="520.0" type="line"/>
      <point x="342.0" y="474.0" type="line"/>
      <point x="27.0" y="474.0" type="line"/>
      <point x="27.0" y="520.0" type="line"/>
    </contour>
  </outline>
</glyph>
<glyph name="u" format="2">
  <advance width="560"/>
  <unicode hex="0075"/>
  <note>
u
</note>
  <outline>
    <contour>
      <point x="261.0" y="38.0" type="qcurve" smooth="yes"/>
      <point x="335.0" y="38.0"/>
      <point x="437.0" y="137.0"/>
      <point x="437.0" y="202.0" type="qcurve"/>
      <point x="437.0" y="520.0" type="line"/>
      <point x="487.0" y="520.0" type="line"/>
      <point x="487.0" y="0.0" type="line"/>
      <point x="439.0" y="0.0" type="line"/>
      <point x="434.0" y="110.0" type="line"/>
      <point x="440.0" y="110.0" type="line"/>
      <point x="424.0" y="61.0"/>
      <point x="317.0" y="-10.0"/>
      <point x="260.0" y="-10.0" type="qcurve" smooth="yes"/>
      <point x="164.0" y="-10.0"/>
      <point x="72.0" y="94.0"/>
      <point x="72.0" y="205.0" type="qcurve"/>
      <point x="72.0" y="520.0" type="line"/>
      <point x="122.0" y="520.0" type="line"/>
      <point x="122.0" y="207.0" type="line"/>
      <point x="122.0" y="120.0"/>
      <point x="190.0" y="38.0"/>
    </contour>
  </outline>
</glyph>
<glyph name="v" format="2">
  <advance width="505"/>
  <unicode hex="0076"/>
  <note>
v
</note>
  <outline>
    <contour>
      <point x="8.0" y="520.0" type="line"/>
      <point x="66.0" y="520.0" type="line"/>
      <point x="252.0" y="61.0" type="line"/>
      <point x="231.0" y="47.0" type="line"/>
      <point x="441.0" y="520.0" type="line"/>
      <point x="497.0" y="520.0" type="line"/>
      <point x="261.0" y="0.0" type="line"/>
      <point x="227.0" y="0.0" type="line"/>
    </contour>
  </outline>
</glyph>
<glyph name="y" format="2">
  <advance width="520"/>
  <unicode hex="0079"/>
  <note>
y
</note>
  <outline>
    <contour>
      <point x="282.0" y="39.0" type="qcurve"/>
      <point x="265.0" y="-32.0" type="line"/>
      <point x="8.0" y="520.0" type="line"/>
      <point x="61.0" y="520.0" type="line"/>
      <point x="254.0" y="106.0" type="line" smooth="yes"/>
      <point x="264.0" y="84.0"/>
      <point x="273.0" y="61.0"/>
    </contour>
    <contour>
      <point x="214.0" y="-230.0" type="line"/>
      <point x="162.0" y="-230.0" type="line"/>
      <point x="241.0" y="-30.0" type="line"/>
      <point x="263.0" y="30.0" type="line"/>
      <point x="265.0" y="36.0"/>
      <point x="268.0" y="42.0"/>
      <point x="270.0" y="48.0" type="qcurve"/>
      <point x="459.0" y="520.0" type="line"/>
      <point x="512.0" y="520.0" type="line"/>
      <point x="302.0" y="-9.0" type="line"/>
    </contour>
  </outline>
</glyph>
<glyph name="asciitilde" format="2">
  <advance width="510"/>
  <unicode hex="007E"/>
  <note>
asciitilde
</note>
  <outline>
    <contour>
      <point x="361.0" y="251.0" type="qcurve"/>
      <point x="346.0" y="251.0"/>
      <point x="294.0" y="264.0"/>
      <point x="239.0" y="280.0" type="qcurve" smooth="yes"/>
      <point x="198.0" y="292.0"/>
      <point x="164.0" y="300.0"/>
      <point x="155.0" y="300.0" type="qcurve" smooth="yes"/>
      <point x="131.0" y="300.0"/>
      <point x="108.0" y="272.0"/>
      <point x="108.0" y="249.0" type="qcurve"/>
      <point x="64.0" y="249.0" type="line"/>
      <point x="64.0" y="295.0"/>
      <point x="110.0" y="346.0"/>
      <point x="155.0" y="346.0" type="qcurve" smooth="yes"/>
      <point x="170.0" y="346.0"/>
      <point x="221.0" y="333.0"/>
      <point x="277.0" y="317.0" type="qcurve" smooth="yes"/>
      <point x="318.0" y="305.0"/>
      <point x="352.0" y="297.0"/>
      <point x="361.0" y="297.0" type="qcurve"/>
      <point x="385.0" y="297.0"/>
      <point x="408.0" y="323.0"/>
      <point x="408.0" y="344.0" type="qcurve"/>
      <point x="452.0" y="344.0" type="line"/>
      <point x="452.0" y="299.0"/>
      <point x="406.0" y="251.0"/>
    </contour>
  </outline>
</glyph>
<glyph name="cent" format="2">
  <advance width="545"/>
  <unicode hex="00A2"/>
  <note>
cent
</note>
  <outline>
    <contour>
      <point x="327.0" y="87.0" type="line"/>
      <point x="327.0" y="0.0" type="line"/>
      <point x="277.0" y="0.0" type="line"/>
      <point x="277.0" y="88.0" type="line"/>
      <point x="278.0" y="122.0" type="line"/>
      <point x="278.0" y="577.0" type="line"/>
      <point x="277.0" y="606.0" type="line"/>
      <point x="277.0" y="700.0" type="line"/>
      <point x="327.0" y="700.0" type="line"/>
      <point x="327.0" y="605.0" type="line"/>
      <point x="326.0" y="577.0" type="line"/>
      <point x="326.0" y="121.0" type="line"/>
    </contour>
    <contour>
      <point x="308.0" y="569.0" type="qcurve" smooth="yes"/>
      <point x="220.0" y="569.0"/>
      <point x="103.0" y="445.0"/>
      <point x="103.0" y="349.0" type="qcurve" smooth="yes"/>
      <point x="103.0" y="253.0"/>
      <point x="219.0" y="128.0"/>
      <point x="301.0" y="128.0" type="qcurve"/>
      <point x="355.0" y="128.0"/>
      <point x="444.0" y="168.0"/>
      <point x="481.0" y="210.0" type="qcurve"/>
      <point x="514.0" y="173.0" type="line"/>
      <point x="478.0" y="128.0"/>
      <point x="372.0" y="78.0"/>
      <point x="309.0" y="78.0" type="qcurve"/>
      <point x="196.0" y="78.0"/>
      <point x="50.0" y="231.0"/>
      <point x="50.0" y="349.0" type="qcurve" smooth="yes"/>
      <point x="50.0" y="467.0"/>
      <point x="197.0" y="619.0"/>
      <point x="312.0" y="619.0" type="qcurve"/>
      <point x="376.0" y="619.0"/>
      <point x="481.0" y="569.0"/>
      <point x="516.0" y="524.0" type="qcurve"/>
      <point x="484.0" y="485.0" type="line"/>
      <point x="451.0" y="525.0"/>
      <point x="359.0" y="569.0"/>
    </contour>
  </outline>
</glyph>
<glyph name="yen" format="2">
  <advance width="641"/>
  <unicode hex="00A5"/>
  <note>
yen
</note>
  <outline>
    <contour>
      <point x="513.0" y="124.0" type="line"/>
      <point x="151.0" y="124.0" type="line"/>
      <point x="151.0" y="172.0" type="line"/>
      <point x="513.0" y="172.0" type="line"/>
    </contour>
    <contour>
      <point x="513.0" y="268.0" type="line"/>
      <point x="151.0" y="268.0" type="line"/>
      <point x="151.0" y="316.0" type="line"/>
      <point x="513.0" y="316.0" type="line"/>
    </contour>
    <contour>
      <point x="553.0" y="700.0" type="line"/>
      <point x="611.0" y="700.0" type="line"/>
      <point x="340.0" y="289.0" type="line"/>
      <point x="355.0" y="357.0" type="line"/>
      <point x="355.0" y="0.0" type="line"/>
      <point x="306.0" y="0.0" type="line"/>
      <point x="306.0" y="349.0" type="line"/>
      <point x="313.0" y="300.0" type="line"/>
      <point x="30.0" y="700.0" type="line"/>
      <point x="92.0" y="700.0" type="line"/>
      <point x="340.0" y="348.0" type="line"/>
      <point x="323.0" y="348.0" type="line"/>
    </contour>
  </outline>
</glyph>
<glyph name="section" format="2">
  <advance width="542"/>
  <unicode hex="00A7"/>
  <note>
section
</note>
  <outline>
    <contour>
      <point x="289.0" y="433.0" type="qcurve" smooth="yes"/>
      <point x="384.09569347352567" y="410.9778394061309"/>
      <point x="469.0" y="336.0"/>
      <point x="469.0" y="277.0" type="qcurve" smooth="yes"/>
      <point x="469.0" y="214.82608695652175"/>
      <point x="389.4511520115102" y="129.97135542784062"/>
      <point x="326.0" y="134.0" type="qcurve"/>
      <point x="336.0" y="165.0" type="line"/>
      <point x="397.0" y="144.0"/>
      <point x="448.0" y="74.9570995699735"/>
      <point x="448.0" y="35.0" type="qcurve" smooth="yes"/>
      <point x="448.0" y="-29.0"/>
      <point x="342.0" y="-112.0"/>
      <point x="258.0" y="-112.0" type="qcurve" smooth="yes"/>
      <point x="192.35643564356434" y="-112.0"/>
      <point x="89.0" y="-63.0"/>
      <point x="63.0" y="-27.0" type="qcurve"/>
      <point x="94.0" y="12.0" type="line"/>
      <point x="121.0" y="-24.0"/>
      <point x="207.0" y="-63.0"/>
      <point x="261.0" y="-63.0" type="qcurve" smooth="yes"/>
      <point x="321.0" y="-63.0"/>
      <point x="396.0" y="-13.0"/>
      <point x="396.0" y="31.0" type="qcurve" smooth="yes"/>
      <point x="396.0" y="68.0"/>
      <point x="330.0" y="119.0"/>
      <point x="255.0" y="139.0" type="qcurve" smooth="yes"/>
      <point x="161.0" y="164.0"/>
      <point x="74.0" y="230.0"/>
      <point x="74.0" y="293.0" type="qcurve" smooth="yes"/>
      <point x="74.0" y="345.14179104477614"/>
      <point x="136.57819438912384" y="419.8122602948445"/>
      <point x="194.0" y="430.0" type="qcurve"/>
      <point x="213.0" y="400.0" type="line"/>
      <point x="153.0" y="418.0"/>
      <point x="105.0" y="484.47058823529414"/>
      <point x="105.0" y="528.0" type="qcurve" smooth="yes"/>
      <point x="105.0" y="592.0"/>
      <point x="199.0" y="674.0"/>
      <point x="272.0" y="674.0" type="qcurve" smooth="yes"/>
      <point x="323.0" y="674.0"/>
      <point x="418.0" y="635.0"/>
      <point x="453.0" y="603.0" type="qcurve"/>
      <point x="421.0" y="565.0" type="line"/>
      <point x="391.0" y="593.0"/>
      <point x="311.0" y="628.0"/>
      <point x="275.0" y="628.0" type="qcurve" smooth="yes"/>
      <point x="224.0" y="628.0"/>
      <point x="158.0" y="573.0"/>
      <point x="158.0" y="531.0" type="qcurve" smooth="yes"/>
      <point x="158.0" y="495.0"/>
      <point x="220.0" y="449.0"/>
    </contour>
    <contour>
      <point x="125.0" y="299.0" type="qcurve" smooth="yes"/>
      <point x="125.0" y="267.735632183908"/>
      <point x="148.57442657048475" y="225.47366444429002"/>
      <point x="181.0" y="214.0" type="qcurve"/>
      <point x="311.0" y="168.0" type="line"/>
      <point x="314.0" y="167.0"/>
      <point x="322.0" y="166.0"/>
      <point x="324.0" y="166.0" type="qcurve" smooth="yes"/>
      <point x="361.0" y="166.0"/>
      <point x="415.0" y="222.84615384615384"/>
      <point x="415.0" y="269.0" type="qcurve" smooth="yes"/>
      <point x="415.0" y="303.46153846153845"/>
      <point x="385.3911326402264" y="354.1948655845501"/>
      <point x="341.0" y="367.0" type="qcurve"/>
      <point x="237.0" y="397.0" type="line"/>
      <point x="233.0" y="398.0"/>
      <point x="226.0" y="399.0"/>
      <point x="219.0" y="399.0" type="qcurve" smooth="yes"/>
      <point x="185.2826086956522" y="399.0"/>
      <point x="125.0" y="341.42424242424244"/>
    </contour>
  </outline>
</glyph>
<glyph name="copyright" format="2">
  <advance width="786"/>
  <unicode hex="00A9"/>
  <note>
copyright
</note>
  <outline>
    <contour>
      <point x="750.0" y="350.0" type="qcurve" smooth="yes"/>
      <point x="750.0" y="201.0"/>
      <point x="541.0" y="-7.0"/>
      <point x="393.0" y="-7.0" type="qcurve" smooth="yes"/>
      <point x="244.0" y="-7.0"/>
      <point x="36.0" y="201.0"/>
      <point x="36.0" y="350.0" type="qcurve" smooth="yes"/>
      <point x="36.0" y="499.0"/>
      <point x="244.0" y="707.0"/>
      <point x="393.0" y="707.0" type="qcurve" smooth="yes"/>
      <point x="541.0" y="707.0"/>
      <point x="750.0" y="499.0"/>
    </contour>
    <contour>
      <point x="84.0" y="350.0" type="qcurve" smooth="yes"/>
      <point x="84.0" y="220.6741214057508"/>
      <point x="264.0" y="41.0"/>
      <point x="393.0" y="41.0" type="qcurve" smooth="yes"/>
      <point x="522.3258785942492" y="41.0"/>
      <point x="702.0" y="221.0"/>
      <point x="702.0" y="350.0" type="qcurve" smooth="yes"/>
      <point x="702.0" y="480.0"/>
      <point x="522.0" y="659.0"/>
      <point x="393.0" y="659.0" type="qcurve" smooth="yes"/>
      <point x="264.0" y="659.0"/>
      <point x="84.0" y="480.3130990415335"/>
    </contour>
    <contour>
      <point x="403.0" y="142.0" type="qcurve" smooth="yes"/>
      <point x="313.0" y="142.0"/>
      <point x="189.0" y="260.0"/>
      <point x="189.0" y="350.0" type="qcurve" smooth="yes"/>
      <point x="189.0" y="436.0"/>
      <point x="313.0" y="557.0"/>
      <point x="403.0" y="557.0" type="qcurve" smooth="yes"/>
      <point x="437.0" y="557.0"/>
      <point x="503.0" y="534.0"/>
      <point x="532.0" y="512.0" type="qcurve"/>
      <point x="511.0" y="475.0" type="line"/>
      <point x="495.0" y="489.0"/>
      <point x="437.0" y="512.0"/>
      <point x="403.0" y="512.0" type="qcurve" smooth="yes"/>
      <point x="334.0" y="512.0"/>
      <point x="237.0" y="415.0"/>
      <point x="237.0" y="350.0" type="qcurve" smooth="yes"/>
      <point x="237.0" y="281.0"/>
      <point x="333.0" y="187.0"/>
      <point x="403.0" y="187.0" type="qcurve" smooth="yes"/>
      <point x="436.0" y="187.0"/>
      <point x="490.0" y="203.0"/>
      <point x="516.0" y="221.0" type="qcurve"/>
      <point x="536.0" y="185.0" type="line"/>
      <point x="506.0" y="164.0"/>
      <point x="438.0" y="142.0"/>
    </contour>
  </outline>
</glyph>
<glyph name="registered" format="2">
  <advance width="519"/>
  <unicode hex="00AE"/>
  <note>
registered
</note>
  <outline>
    <contour>
      <point x="494.0" y="484.0" type="qcurve" smooth="yes"/>
      <point x="494.0" y="388.0"/>
      <point x="357.0" y="254.0"/>
      <point x="260.0" y="254.0" type="qcurve" smooth="yes"/>
      <point x="162.0" y="254.0"/>
      <point x="25.0" y="388.0"/>
      <point x="25.0" y="484.0" type="qcurve" smooth="yes"/>
      <point x="25.0" y="580.0"/>
      <point x="163.0" y="714.0"/>
      <point x="260.0" y="714.0" type="qcurve" smooth="yes"/>
      <point x="356.0524017467249" y="714.0"/>
      <point x="494.0" y="579.0"/>
    </contour>
    <contour>
      <point x="358.0" y="534.0" type="qcurve" smooth="yes"/>
      <point x="358.0" y="500.0"/>
      <point x="310.0" y="456.0"/>
      <point x="274.0" y="456.0" type="qcurve"/>
      <point x="193.0" y="456.0" type="line"/>
      <point x="218.0" y="470.0" type="line"/>
      <point x="218.0" y="367.0" type="line"/>
      <point x="179.0" y="367.0" type="line"/>
      <point x="179.0" y="611.0" type="line"/>
      <point x="274.0" y="611.0" type="line" smooth="yes"/>
      <point x="312.0" y="611.0"/>
      <point x="358.0" y="568.0"/>
    </contour>
    <contour>
      <point x="195.0" y="492.0" type="line"/>
      <point x="264.0" y="492.0" type="line" smooth="yes"/>
      <point x="289.0" y="492.0"/>
      <point x="320.0" y="515.0"/>
      <point x="320.0" y="533.0" type="qcurve" smooth="yes"/>
      <point x="320.0" y="553.0"/>
      <point x="293.0" y="575.0"/>
      <point x="266.0" y="575.0" type="qcurve"/>
      <point x="192.0" y="575.0" type="line"/>
      <point x="218.0" y="589.0" type="line"/>
      <point x="218.0" y="479.0" type="line"/>
    </contour>
    <contour>
      <point x="65.0" y="484.0" type="qcurve" smooth="yes"/>
      <point x="65.0" y="404.0"/>
      <point x="179.0" y="294.0"/>
      <point x="260.0" y="294.0" type="qcurve" smooth="yes"/>
      <point x="340.0" y="294.0"/>
      <point x="454.0" y="404.0"/>
      <point x="454.0" y="484.0" type="qcurve" smooth="yes"/>
      <point x="454.0" y="564.0"/>
      <point x="339.9396984924623" y="674.0"/>
      <point x="260.0" y="674.0" type="qcurve" smooth="yes"/>
      <point x="179.0" y="674.0"/>
      <point x="65.0" y="564.0"/>
    </contour>
    <contour>
      <point x="319.0" y="367.0" type="line"/>
      <point x="268.0" y="467.0" type="line"/>
      <point x="303.0" y="481.0" type="line"/>
      <point x="361.0" y="367.0" type="line"/>
    </contour>
  </outline>
</glyph>
<glyph name="acute" format="2">
  <advance width="269"/>
  <unicode hex="00B4"/>
  <outline>
    <contour>
      <point x="221.0" y="690.0" type="line"/>
      <point x="67.0" y="589.0" type="line"/>
      <point x="46.0" y="620.0" type="line"/>
      <point x="188.0" y="735.0" type="line"/>
    </contour>
  </outline>
</glyph>
<glyph name="cedilla" format="2">
  <advance width="267"/>
  <unicode hex="00B8"/>
  <outline>
    <contour>
      <point x="96.0" y="-93.0" type="line"/>
      <point x="56.0" y="-86.0" type="line"/>
      <point x="116.0" y="6.0" type="line"/>
      <point x="160.0" y="6.0" type="line"/>
    </contour>
    <contour>
      <point x="210.0" y="-135.0" type="qcurve" smooth="yes"/>
      <point x="210.0" y="-155.0"/>
      <point x="181.0" y="-200.0"/>
      <point x="156.0" y="-211.0" type="qcurve" smooth="yes"/>
      <point x="132.0" y="-221.0"/>
      <point x="83.0" y="-230.0"/>
      <point x="50.0" y="-230.0" type="qcurve"/>
      <point x="43.0" y="-197.0" type="line"/>
      <point x="88.0" y="-195.0"/>
      <point x="162.0" y="-168.0"/>
      <point x="162.0" y="-140.0" type="qcurve" smooth="yes"/>
      <point x="162.0" y="-122.0"/>
      <point x="117.0" y="-96.0"/>
      <point x="69.0" y="-96.0" type="qcurve"/>
      <point x="56.0" y="-86.0" type="line"/>
      <point x="56.0" y="-86.0" type="line"/>
      <point x="95.0" y="-57.0" type="line"/>
      <point x="152.0" y="-63.0"/>
      <point x="210.0" y="-103.0"/>
    </contour>
  </outline>
</glyph>
<glyph name="ordmasculine" format="2">
  <advance width="354"/>
  <unicode hex="00BA"/>
  <note>
ordmasculine
</note>
  <outline>
    <contour>
      <point x="176.0" y="710.0" type="qcurve"/>
      <point x="238.75949367088606" y="710.0"/>
      <point x="324.0" y="617.0"/>
      <point x="324.0" y="549.0" type="qcurve"/>
      <point x="324.0" y="482.0"/>
      <point x="239.69620253164558" y="392.0"/>
      <point x="176.0" y="392.0" type="qcurve"/>
      <point x="113.2948717948718" y="392.0"/>
      <point x="30.0" y="481.0"/>
      <point x="30.0" y="549.0" type="qcurve"/>
      <point x="30.0" y="618.0"/>
      <point x="113.2948717948718" y="710.0"/>
    </contour>
    <contour>
      <point x="73.0" y="549.0" type="qcurve"/>
      <point x="73.0" y="497.0"/>
      <point x="130.42477876106193" y="432.0"/>
      <point x="176.0" y="432.0" type="qcurve"/>
      <point x="223.17391304347825" y="432.0"/>
      <point x="281.0" y="497.0"/>
      <point x="281.0" y="549.0" type="qcurve"/>
      <point x="281.0" y="603.0"/>
      <point x="223.17391304347825" y="670.0"/>
      <point x="176.0" y="670.0" type="qcurve"/>
      <point x="128.60176991150442" y="670.0"/>
      <point x="73.0" y="603.0"/>
    </contour>
  </outline>
</glyph>
<glyph name="AE" format="2">
  <advance width="942"/>
  <unicode hex="00C6"/>
  <note>
AE
</note>
  <outline>
    <contour>
      <point x="166.0" y="191.0" type="line"/>
      <point x="202.0" y="241.0" type="line"/>
      <point x="495.0" y="241.0" type="line"/>
      <point x="465.0" y="221.0" type="line"/>
      <point x="465.0" y="626.0" type="line"/>
      <point x="477.0" y="600.0" type="line"/>
      <point x="60.0" y="0.0" type="line"/>
      <point x="0.0" y="0.0" type="line"/>
      <point x="486.0" y="700.0" type="line"/>
      <point x="872.0" y="700.0" type="line"/>
      <point x="872.0" y="650.0" type="line"/>
      <point x="485.0" y="650.0" type="line"/>
      <point x="515.0" y="680.0" type="line"/>
      <point x="515.0" y="366.0" type="line"/>
      <point x="485.0" y="386.0" type="line"/>
      <point x="815.0" y="386.0" type="line"/>
      <point x="815.0" y="336.0" type="line"/>
      <point x="485.0" y="336.0" type="line"/>
      <point x="515.0" y="356.0" type="line"/>
      <point x="515.0" y="20.0" type="line"/>
      <point x="485.0" y="50.0" type="line"/>
      <point x="868.0" y="50.0" type="line"/>
      <point x="868.0" y="0.0" type="line"/>
      <point x="465.0" y="0.0" type="line"/>
      <point x="465.0" y="211.0" type="line"/>
      <point x="495.0" y="191.0" type="line"/>
    </contour>
  </outline>
</glyph>
<glyph name="multiply" format="2">
  <advance width="457"/>
  <unicode hex="00D7"/>
  <note>
multiply
</note>
  <outline>
    <contour>
      <point x="417.0" y="129.0" type="line"/>
      <point x="381.0" y="94.0" type="line"/>
      <point x="40.0" y="435.0" type="line"/>
      <point x="75.0" y="470.0" type="line"/>
    </contour>
    <contour>
      <point x="74.0" y="97.0" type="line"/>
      <point x="40.0" y="131.0" type="line"/>
      <point x="380.0" y="471.0" type="line"/>
      <point x="414.0" y="437.0" type="line"/>
    </contour>
  </outline>
</glyph>
<glyph name="Oslash" format="2">
  <advance width="787"/>
  <unicode hex="00D8"/>
  <note>
Oslash
</note>
  <outline>
    <contour>
      <point x="114.0" y="-30.0" type="line"/>
      <point x="80.0" y="2.0" type="line"/>
      <point x="671.0" y="725.0" type="line"/>
      <point x="705.0" y="693.0" type="line"/>
    </contour>
    <contour>
      <point x="393.0" y="705.0" type="qcurve"/>
      <point x="543.0" y="705.0"/>
      <point x="737.0" y="503.0"/>
      <point x="737.0" y="347.0" type="qcurve"/>
      <point x="737.0" y="191.0"/>
      <point x="543.0" y="-10.0"/>
      <point x="393.0" y="-10.0" type="qcurve"/>
      <point x="243.0" y="-10.0"/>
      <point x="50.0" y="191.0"/>
      <point x="50.0" y="347.0" type="qcurve"/>
      <point x="50.0" y="503.0"/>
      <point x="243.0" y="705.0"/>
    </contour>
    <contour>
      <point x="393.0" y="40.0" type="qcurve" smooth="yes"/>
      <point x="520.0" y="40.0"/>
      <point x="684.0" y="213.0"/>
      <point x="684.0" y="347.0" type="qcurve"/>
      <point x="684.0" y="481.0"/>
      <point x="520.0" y="655.0"/>
      <point x="393.0" y="655.0" type="qcurve" smooth="yes"/>
      <point x="266.0" y="655.0"/>
      <point x="103.0" y="481.0"/>
      <point x="103.0" y="347.0" type="qcurve"/>
      <point x="103.0" y="213.0"/>
      <point x="266.0" y="40.0"/>
    </contour>
  </outline>
</glyph>
<glyph name="Thorn" format="2">
  <advance width="589"/>
  <unicode hex="00DE"/>
  <note>
Thorn
</note>
  <outline>
    <contour>
      <point x="108.0" y="700.0" type="line"/>
      <point x="158.0" y="700.0" type="line"/>
      <point x="158.0" y="0.0" type="line"/>
      <point x="108.0" y="0.0" type="line"/>
    </contour>
    <contour>
      <point x="136.0" y="161.0" type="line"/>
      <point x="135.0" y="215.0" type="line"/>
      <point x="347.0" y="215.0" type="line" smooth="yes"/>
      <point x="413.0" y="215.0"/>
      <point x="486.0" y="300.0"/>
      <point x="486.0" y="358.0" type="qcurve" smooth="yes"/>
      <point x="486.0" y="417.0"/>
      <point x="411.0" y="499.0"/>
      <point x="347.0" y="499.0" type="qcurve"/>
      <point x="137.0" y="499.0" type="line"/>
      <point x="137.0" y="553.0" type="line"/>
      <point x="349.0" y="553.0" type="line" smooth="yes"/>
      <point x="430.0" y="553.0"/>
      <point x="539.0" y="440.0"/>
      <point x="539.0" y="358.0" type="qcurve" smooth="yes"/>
      <point x="539.0" y="276.0"/>
      <point x="430.0" y="161.0"/>
      <point x="348.0" y="161.0" type="qcurve"/>
    </contour>
  </outline>
</glyph>
<glyph name="eth" format="2">
  <advance width="574"/>
  <unicode hex="00F0"/>
  <note>
eth
</note>
  <outline>
    <contour>
      <point x="535.0" y="266.0" type="qcurve"/>
      <point x="535.0" y="146.0"/>
      <point x="396.0" y="-10.0"/>
      <point x="288.0" y="-10.0" type="qcurve"/>
      <point x="180.0" y="-10.0"/>
      <point x="40.0" y="144.0"/>
      <point x="40.0" y="263.0" type="qcurve"/>
      <point x="40.0" y="378.0"/>
      <point x="185.0" y="527.0"/>
      <point x="296.0" y="527.0" type="qcurve"/>
      <point x="370.0" y="527.0"/>
      <point x="481.0" y="436.0"/>
      <point x="503.0" y="378.0" type="qcurve"/>
      <point x="481.0" y="381.0" type="line"/>
      <point x="473.0" y="482.0"/>
      <point x="314.35666412827993" y="675.3260587047064"/>
      <point x="190.0" y="700.0" type="qcurve"/>
      <point x="211.0" y="739.0" type="line"/>
      <point x="360.0" y="703.0"/>
      <point x="535.0" y="458.0"/>
    </contour>
    <contour>
      <point x="93.0" y="263.0" type="qcurve"/>
      <point x="93.0" y="166.0"/>
      <point x="203.0" y="40.0"/>
      <point x="288.0" y="40.0" type="qcurve"/>
      <point x="372.0" y="40.0"/>
      <point x="482.0" y="166.0"/>
      <point x="482.0" y="263.0" type="qcurve"/>
      <point x="482.0" y="358.0"/>
      <point x="372.0" y="481.0"/>
      <point x="288.0" y="481.0" type="qcurve"/>
      <point x="203.0" y="481.0"/>
      <point x="93.0" y="358.0"/>
    </contour>
    <contour>
      <point x="384.0" y="607.0" type="line"/>
      <point x="160.0" y="551.0" type="line"/>
      <point x="152.0" y="592.0" type="line"/>
      <point x="344.0" y="642.0" type="line"/>
      <point x="374.0" y="650.0" type="line"/>
      <point x="485.0" y="679.0" type="line"/>
      <point x="496.0" y="638.0" type="line"/>
      <point x="408.0" y="614.0" type="line"/>
    </contour>
  </outline>
</glyph>
<glyph name="oslash" format="2">
  <advance width="599"/>
  <unicode hex="00F8"/>
  <note>
oslash
</note>
  <outline>
    <contour>
      <point x="85.0" y="-24.0" type="line"/>
      <point x="51.0" y="1.0" type="line"/>
      <point x="514.0" y="545.0" type="line"/>
      <point x="549.0" y="519.0" type="line"/>
    </contour>
    <contour>
      <point x="300.0" y="531.0" type="qcurve"/>
      <point x="417.0" y="531.0"/>
      <point x="567.0" y="380.0"/>
      <point x="567.0" y="263.0" type="qcurve"/>
      <point x="567.0" y="144.0"/>
      <point x="417.0" y="-10.0"/>
      <point x="300.0" y="-10.0" type="qcurve"/>
      <point x="183.0" y="-10.0"/>
      <point x="32.0" y="144.0"/>
      <point x="32.0" y="263.0" type="qcurve"/>
      <point x="32.0" y="380.0"/>
      <point x="183.0" y="531.0"/>
    </contour>
    <contour>
      <point x="300.0" y="40.0" type="qcurve"/>
      <point x="393.0" y="40.0"/>
      <point x="514.0" y="166.0"/>
      <point x="514.0" y="263.0" type="qcurve"/>
      <point x="514.0" y="358.0"/>
      <point x="393.0" y="481.0"/>
      <point x="300.0" y="481.0" type="qcurve"/>
      <point x="206.0" y="481.0"/>
      <point x="85.0" y="358.0"/>
      <point x="85.0" y="263.0" type="qcurve"/>
      <point x="85.0" y="166.0"/>
      <point x="206.0" y="40.0"/>
    </contour>
  </outline>
</glyph>
<glyph name="Aogonek" format="2">
  <advance width="670"/>
  <unicode hex="0104"/>
  <outline>
    <contour>
      <point x="590.0" y="5.0" type="line"/>
      <point x="565.0" y="5.0" type="line"/>
      <point x="387.0" y="478.0" type="line" smooth="yes"/>
      <point x="372.0" y="518.0"/>
      <point x="353.0" y="572.0"/>
      <point x="340.0" y="609.0" type="qcurve" smooth="yes"/>
      <point x="334.0" y="625.0"/>
      <point x="321.0" y="664.0"/>
      <point x="312.0" y="689.0" type="qcurve"/>
      <point x="331.0" y="690.0" type="line"/>
      <point x="323.0" y="665.0"/>
      <point x="310.0" y="625.0"/>
      <point x="304.0" y="609.0" type="qcurve" smooth="yes"/>
      <point x="292.0" y="572.0"/>
      <point x="272.0" y="517.0"/>
      <point x="257.0" y="478.0" type="qcurve" smooth="yes"/>
      <point x="77.0" y="0.0" type="line"/>
      <point x="25.0" y="0.0" type="line"/>
      <point x="291.0" y="700.0" type="line"/>
      <point x="359.0" y="700.0" type="line"/>
      <point x="621.0" y="3.0" type="line"/>
      <point x="617.0" y="0.0" type="line"/>
      <point x="565.0" y="-23.0"/>
      <point x="489.0" y="-84.0"/>
      <point x="489.0" y="-119.0" type="qcurve" smooth="yes"/>
      <point x="489.0" y="-144.0"/>
      <point x="529.0" y="-178.0"/>
      <point x="558.0" y="-178.0" type="qcurve" smooth="yes"/>
      <point x="580.0" y="-178.0"/>
      <point x="615.0" y="-160.0"/>
      <point x="627.0" y="-146.0" type="qcurve"/>
      <point x="660.0" y="-170.0" type="line"/>
      <point x="641.0" y="-195.0"/>
      <point x="590.0" y="-221.0"/>
      <point x="556.0" y="-221.0" type="qcurve" smooth="yes"/>
      <point x="508.0" y="-221.0"/>
      <point x="441.0" y="-163.0"/>
      <point x="441.0" y="-121.0" type="qcurve" smooth="yes"/>
      <point x="441.0" y="-68.0"/>
      <point x="525.0" y="5.0"/>
      <point x="589.0" y="30.0" type="qcurve"/>
    </contour>
    <contour>
      <point x="321.0" y="211.0" type="line"/>
      <point x="134.0" y="211.0" type="line"/>
      <point x="153.0" y="261.0" type="line"/>
      <point x="321.0" y="261.0" type="line"/>
    </contour>
    <contour>
      <point x="515.0" y="211.0" type="line"/>
      <point x="321.0" y="211.0" type="line"/>
      <point x="321.0" y="261.0" type="line"/>
      <point x="496.0" y="261.0" type="line"/>
    </contour>
  </outline>
</glyph>
<glyph name="aogonek" format="2">
  <advance width="607"/>
  <unicode hex="0105"/>
  <note>
aogonek
</note>
  <outline>
    <contour>
      <point x="418.0" y="33.0" type="qcurve" smooth="yes"/>
      <point x="389.0" y="13.0"/>
      <point x="319.0" y="-10.0"/>
      <point x="280.0" y="-10.0" type="qcurve"/>
      <point x="174.0" y="-10.0"/>
      <point x="32.0" y="143.0"/>
      <point x="32.0" y="260.0" type="qcurve"/>
      <point x="32.0" y="378.0"/>
      <point x="177.0" y="531.0"/>
      <point x="280.0" y="531.0" type="qcurve"/>
      <point x="346.0" y="531.0"/>
      <point x="454.0" y="468.0"/>
      <point x="496.0" y="391.0" type="qcurve"/>
      <point x="481.0" y="387.0" type="line"/>
      <point x="486.0" y="520.0" type="line"/>
      <point x="534.0" y="520.0" type="line"/>
      <point x="534.0" y="0.0" type="line"/>
      <point x="468.0" y="-32.0"/>
      <point x="413.0" y="-91.0"/>
      <point x="413.0" y="-120.0" type="qcurve" smooth="yes"/>
      <point x="413.0" y="-145.0"/>
      <point x="444.0" y="-178.0"/>
      <point x="474.0" y="-178.0" type="qcurve" smooth="yes"/>
      <point x="492.0" y="-178.0"/>
      <point x="521.0" y="-163.0"/>
      <point x="539.0" y="-143.0" type="qcurve"/>
      <point x="572.0" y="-167.0" type="line"/>
      <point x="553.0" y="-192.0"/>
      <point x="506.0" y="-221.0"/>
      <point x="470.0" y="-221.0" type="qcurve" smooth="yes"/>
      <point x="426.0" y="-221.0"/>
      <point x="367.0" y="-169.0"/>
      <point x="367.0" y="-127.0" type="qcurve" smooth="yes"/>
      <point x="367.0" y="-81.0"/>
      <point x="432.0" y="-10.0"/>
      <point x="512.0" y="24.0" type="qcurve"/>
      <point x="512.0" y="0.0" type="line"/>
      <point x="484.0" y="0.0" type="line"/>
      <point x="484.0" y="138.0" type="line"/>
      <point x="498.0" y="134.0" type="line"/>
      <point x="472.0" y="86.0"/>
      <point x="439.0" y="48.0"/>
    </contour>
    <contour>
      <point x="85.0" y="261.0" type="qcurve"/>
      <point x="85.0" y="166.0"/>
      <point x="197.0" y="40.0"/>
      <point x="287.0" y="40.0" type="qcurve"/>
      <point x="373.0" y="40.0"/>
      <point x="488.0" y="164.0"/>
      <point x="488.0" y="261.0" type="qcurve"/>
      <point x="488.0" y="357.0"/>
      <point x="374.0" y="481.0"/>
      <point x="287.0" y="481.0" type="qcurve"/>
      <point x="198.0" y="481.0"/>
      <point x="85.0" y="357.0"/>
    </contour>
  </outline>
</glyph>
<glyph name="eogonek" format="2">
  <advance width="546"/>
  <unicode hex="0119"/>
  <note>
eogonek
</note>
  <outline>
    <contour>
      <point x="383.0" y="26.0" type="qcurve"/>
      <point x="369.0" y="-4.0" type="line"/>
      <point x="329.0" y="-8.0"/>
      <point x="307.0" y="-10.0"/>
      <point x="296.0" y="-10.0" type="qcurve"/>
      <point x="183.0" y="-10.0"/>
      <point x="38.0" y="140.0"/>
      <point x="38.0" y="261.0" type="qcurve"/>
      <point x="38.0" y="378.0"/>
      <point x="178.0" y="531.0"/>
      <point x="289.0" y="531.0" type="qcurve"/>
      <point x="398.0" y="531.0"/>
      <point x="518.0" y="392.0"/>
      <point x="518.0" y="282.0" type="qcurve"/>
      <point x="517.0" y="255.0" type="line"/>
      <point x="71.0" y="255.0" type="line"/>
      <point x="71.0" y="301.0" type="line"/>
      <point x="498.0" y="301.0" type="line"/>
      <point x="468.0" y="271.0" type="line"/>
      <point x="468.0" y="307.0" type="line"/>
      <point x="469.0" y="367.0"/>
      <point x="380.0" y="481.0"/>
      <point x="288.0" y="481.0" type="qcurve"/>
      <point x="211.0" y="481.0"/>
      <point x="96.0" y="381.0"/>
      <point x="91.0" y="261.0" type="qcurve"/>
      <point x="94.0" y="160.0"/>
      <point x="204.0" y="40.0"/>
      <point x="305.0" y="40.0" type="qcurve"/>
      <point x="342.0" y="40.0"/>
      <point x="420.0" y="64.0"/>
      <point x="469.0" y="104.0" type="qcurve"/>
      <point x="495.0" y="67.0" type="line"/>
      <point x="481.0" y="55.0"/>
      <point x="448.0" y="32.0"/>
      <point x="395.0" y="2.0" type="qcurve" smooth="yes"/>
      <point x="339.0" y="-30.0"/>
      <point x="294.0" y="-91.0"/>
      <point x="294.0" y="-120.0" type="qcurve" smooth="yes"/>
      <point x="294.0" y="-145.0"/>
      <point x="324.0" y="-178.0"/>
      <point x="353.0" y="-178.0" type="qcurve" smooth="yes"/>
      <point x="373.7014925373134" y="-178.0"/>
      <point x="407.0" y="-162.0"/>
      <point x="426.0" y="-141.0" type="qcurve"/>
      <point x="448.0" y="-172.0" type="line"/>
      <point x="429.7842963660356" y="-195.27562131006556"/>
      <point x="379.9375" y="-221.0"/>
      <point x="349.0" y="-221.0" type="qcurve" smooth="yes"/>
      <point x="306.2692307692308" y="-221.0"/>
      <point x="248.0" y="-169.0"/>
      <point x="248.0" y="-127.0" type="qcurve" smooth="yes"/>
      <point x="248.0" y="-80.0"/>
      <point x="307.0" y="-6.0"/>
    </contour>
  </outline>
</glyph>
<glyph name="Hbar" format="2">
  <advance width="744"/>
  <unicode hex="0126"/>
  <note>
Hbar
</note>
  <outline>
    <contour>
      <point x="108.0" y="536.0" type="line"/>
      <point x="28.0" y="536.0" type="line"/>
      <point x="28.0" y="582.0" type="line"/>
      <point x="108.0" y="582.0" type="line"/>
      <point x="219.0" y="582.0" type="line"/>
      <point x="503.0" y="582.0" type="line"/>
      <point x="636.0" y="582.0" type="line"/>
      <point x="716.0" y="582.0" type="line"/>
      <point x="716.0" y="536.0" type="line"/>
      <point x="636.0" y="536.0" type="line"/>
      <point x="515.0" y="536.0" type="line"/>
      <point x="209.0" y="536.0" type="line"/>
    </contour>
    <contour>
      <point x="108.0" y="700.0" type="line"/>
      <point x="158.0" y="700.0" type="line"/>
      <point x="158.0" y="0.0" type="line"/>
      <point x="108.0" y="0.0" type="line"/>
    </contour>
    <contour>
      <point x="586.0" y="700.0" type="line"/>
      <point x="636.0" y="700.0" type="line"/>
      <point x="636.0" y="0.0" type="line"/>
      <point x="586.0" y="0.0" type="line"/>
    </contour>
    <contour>
      <point x="137.0" y="324.0" type="line"/>
      <point x="137.0" y="374.0" type="line"/>
      <point x="604.0" y="374.0" type="line"/>
      <point x="604.0" y="324.0" type="line"/>
    </contour>
  </outline>
</glyph>
<glyph name="iogonek" format="2">
  <advance width="200"/>
  <unicode hex="012F"/>
  <note>
iogonek
</note>
  <outline>
    <contour>
      <point x="92.0" y="24.0" type="qcurve"/>
      <point x="75.0" y="1.0" type="line"/>
      <point x="75.0" y="520.0" type="line"/>
      <point x="125.0" y="520.0" type="line"/>
      <point x="125.0" y="0.0" type="line"/>
      <point x="74.0" y="-29.0"/>
      <point x="34.0" y="-89.0"/>
      <point x="34.0" y="-117.0" type="qcurve" smooth="yes"/>
      <point x="34.0" y="-143.0"/>
      <point x="65.0" y="-178.0"/>
      <point x="95.0" y="-178.0" type="qcurve" smooth="yes"/>
      <point x="113.0" y="-178.0"/>
      <point x="142.0" y="-163.0"/>
      <point x="160.0" y="-143.0" type="qcurve"/>
      <point x="193.0" y="-167.0" type="line"/>
      <point x="174.0" y="-192.0"/>
      <point x="126.0" y="-221.0"/>
      <point x="90.0" y="-221.0" type="qcurve" smooth="yes"/>
      <point x="46.0" y="-221.0"/>
      <point x="-12.0" y="-167.0"/>
      <point x="-12.0" y="-124.0" type="qcurve" smooth="yes"/>
      <point x="-12.0" y="-84.0"/>
      <point x="32.0" y="-15.0"/>
    </contour>
    <contour>
      <point x="146.0" y="688.0" type="qcurve" smooth="yes"/>
      <point x="146.0" y="668.0"/>
      <point x="122.0" y="643.0"/>
      <point x="100.0" y="643.0" type="qcurve" smooth="yes"/>
      <point x="78.0" y="643.0"/>
      <point x="54.0" y="667.0"/>
      <point x="54.0" y="688.0" type="qcurve" smooth="yes"/>
      <point x="54.0" y="708.0"/>
      <point x="78.0" y="733.0"/>
      <point x="100.0" y="733.0" type="qcurve" smooth="yes"/>
      <point x="122.0" y="733.0"/>
      <point x="146.0" y="709.0"/>
    </contour>
  </outline>
</glyph>
<glyph name="Lslash" format="2">
  <advance width="536"/>
  <unicode hex="0141"/>
  <note>
Lslash
</note>
  <outline>
    <contour>
      <point x="132.0" y="50.0" type="line"/>
      <point x="501.0" y="50.0" type="line"/>
      <point x="501.0" y="0.0" type="line"/>
      <point x="108.0" y="0.0" type="line"/>
      <point x="108.0" y="700.0" type="line"/>
      <point x="158.0" y="700.0" type="line"/>
      <point x="158.0" y="28.0" type="line"/>
    </contour>
    <contour>
      <point x="24.0" y="291.0" type="line"/>
      <point x="7.0" y="332.0" type="line"/>
      <point x="281.0" y="456.0" type="line"/>
      <point x="298.0" y="414.0" type="line"/>
    </contour>
  </outline>
</glyph>
<glyph name="lslash" format="2">
  <advance width="268"/>
  <unicode hex="0142"/>
  <note>
lslash
</note>
  <outline>
    <contour>
      <point x="158.0" y="0.0" type="line"/>
      <point x="108.0" y="0.0" type="line"/>
      <point x="108.0" y="740.0" type="line"/>
      <point x="158.0" y="740.0" type="line"/>
    </contour>
    <contour>
      <point x="18.0" y="287.0" type="line"/>
      <point x="0.0" y="330.0" type="line"/>
      <point x="249.0" y="437.0" type="line"/>
      <point x="267.0" y="394.0" type="line"/>
    </contour>
  </outline>
</glyph>
<glyph name="eng" format="2">
  <advance width="595"/>
  <unicode hex="014B"/>
  <note>
eng
</note>
  <outline>
    <contour>
      <point x="315.0" y="531.0" type="qcurve"/>
      <point x="398.0" y="531.0"/>
      <point x="486.0" y="426.0"/>
      <point x="486.0" y="315.0" type="qcurve"/>
      <point x="486.0" y="-52.0" type="line" smooth="yes"/>
      <point x="486.0" y="-116.0"/>
      <point x="411.0" y="-195.0"/>
      <point x="350.0" y="-195.0" type="qcurve"/>
      <point x="329.0" y="-152.0" type="line"/>
      <point x="389.0" y="-152.0"/>
      <point x="436.0" y="-92.0"/>
      <point x="436.0" y="-32.0" type="qcurve"/>
      <point x="436.0" y="313.0" type="line"/>
      <point x="436.0" y="400.0"/>
      <point x="367.0" y="483.0"/>
      <point x="300.0" y="483.0" type="qcurve"/>
      <point x="223.0" y="483.0"/>
      <point x="123.0" y="383.0"/>
      <point x="123.0" y="318.0" type="qcurve"/>
      <point x="123.0" y="0.0" type="line"/>
      <point x="73.0" y="0.0" type="line"/>
      <point x="73.0" y="520.0" type="line"/>
      <point x="121.0" y="520.0" type="line"/>
      <point x="125.0" y="424.0" type="line"/>
      <point x="146.0" y="468.0"/>
      <point x="253.0" y="531.0"/>
    </contour>
  </outline>
</glyph>
<glyph name="OE" format="2">
  <advance width="1009"/>
  <unicode hex="0152"/>
  <note>
OE
</note>
  <outline>
    <contour>
      <point x="50.0" y="350.0" type="qcurve" smooth="yes"/>
      <point x="50.0" y="503.0"/>
      <point x="241.0" y="700.0"/>
      <point x="376.0" y="700.0" type="qcurve"/>
      <point x="939.0" y="700.0" type="line"/>
      <point x="939.0" y="650.0" type="line"/>
      <point x="552.0" y="650.0" type="line"/>
      <point x="582.0" y="680.0" type="line"/>
      <point x="582.0" y="356.0" type="line"/>
      <point x="552.0" y="386.0" type="line"/>
      <point x="882.0" y="386.0" type="line"/>
      <point x="882.0" y="336.0" type="line"/>
      <point x="552.0" y="336.0" type="line"/>
      <point x="582.0" y="366.0" type="line"/>
      <point x="582.0" y="20.0" type="line"/>
      <point x="552.0" y="50.0" type="line"/>
      <point x="935.0" y="50.0" type="line"/>
      <point x="935.0" y="0.0" type="line"/>
      <point x="376.0" y="0.0" type="line" smooth="yes"/>
      <point x="241.0" y="0.0"/>
      <point x="50.0" y="197.0"/>
    </contour>
    <contour>
      <point x="562.0" y="50.0" type="line"/>
      <point x="532.0" y="20.0" type="line"/>
      <point x="532.0" y="680.0" type="line"/>
      <point x="562.0" y="650.0" type="line"/>
      <point x="381.0" y="650.0" type="line" smooth="yes"/>
      <point x="267.0" y="650.0"/>
      <point x="103.0" y="481.0"/>
      <point x="103.0" y="350.0" type="qcurve" smooth="yes"/>
      <point x="103.0" y="219.0"/>
      <point x="267.0" y="50.0"/>
      <point x="381.0" y="50.0" type="qcurve" smooth="yes"/>
    </contour>
  </outline>
</glyph>
<glyph name="Uogonek" format="2">
  <advance width="753"/>
  <unicode hex="0172"/>
  <outline>
    <contour>
      <point x="374.0" y="-6.0" type="qcurve" smooth="yes"/>
      <point x="258.0" y="-6.0"/>
      <point x="108.0" y="149.0"/>
      <point x="108.0" y="269.0" type="qcurve"/>
      <point x="108.0" y="701.0" type="line"/>
      <point x="158.0" y="701.0" type="line"/>
      <point x="158.0" y="278.0" type="line" smooth="yes"/>
      <point x="158.0" y="176.0"/>
      <point x="280.0" y="44.0"/>
      <point x="374.0" y="44.0" type="qcurve" smooth="yes"/>
      <point x="471.0" y="44.0"/>
      <point x="596.0" y="176.0"/>
      <point x="596.0" y="278.0" type="qcurve"/>
      <point x="596.0" y="701.0" type="line"/>
      <point x="645.0" y="701.0" type="line"/>
      <point x="645.0" y="269.0" type="line" smooth="yes"/>
      <point x="645.0" y="182.95255474452554"/>
      <point x="550.4165977822249" y="26.433805295294835"/>
      <point x="443.0" y="-2.0" type="qcurve" smooth="yes"/>
      <point x="415.85406653144895" y="-9.238915591613619"/>
      <point x="348.0" y="-82.05263157894737"/>
      <point x="348.0" y="-119.0" type="qcurve" smooth="yes"/>
      <point x="348.0" y="-144.0"/>
      <point x="388.0" y="-178.0"/>
      <point x="417.0" y="-178.0" type="qcurve" smooth="yes"/>
      <point x="439.0" y="-178.0"/>
      <point x="474.0" y="-160.0"/>
      <point x="486.0" y="-146.0" type="qcurve"/>
      <point x="519.0" y="-170.0" type="line"/>
      <point x="500.0" y="-195.0"/>
      <point x="449.0" y="-221.0"/>
      <point x="415.0" y="-221.0" type="qcurve" smooth="yes"/>
      <point x="367.0" y="-221.0"/>
      <point x="300.0" y="-163.0"/>
      <point x="300.0" y="-121.0" type="qcurve" smooth="yes"/>
      <point x="300.0" y="-70.0"/>
      <point x="382.4939699272433" y="4.626503241992584"/>
      <point x="437.0" y="30.0" type="qcurve"/>
      <point x="418.0" y="-6.0" type="line"/>
      <point x="385.0" y="-6.0"/>
      <point x="378.0" y="-6.0"/>
    </contour>
  </outline>
</glyph>
<glyph name="florin" format="2">
  <advance width="519"/>
  <unicode hex="0192"/>
  <note>
florin
</note>
  <outline>
    <contour>
      <point x="96.0" y="-31.0" type="qcurve" smooth="yes"/>
      <point x="70.0" y="-31.0"/>
      <point x="20.0" y="-13.0"/>
      <point x="4.0" y="1.0" type="qcurve"/>
      <point x="23.0" y="46.0" type="line"/>
      <point x="45.41829501799832" y="27.480538898175304"/>
      <point x="75.725" y="15.0"/>
      <point x="97.0" y="15.0" type="qcurve" smooth="yes"/>
      <point x="138.97530864197532" y="15.0"/>
      <point x="175.54892101713278" y="72.09982821799949"/>
      <point x="182.0" y="109.0" type="qcurve"/>
      <point x="257.0" y="538.0" type="line" smooth="yes"/>
      <point x="270.0" y="615.0"/>
      <point x="341.0" y="692.0"/>
      <point x="404.0" y="692.0" type="qcurve" smooth="yes"/>
      <point x="436.0" y="692.0"/>
      <point x="491.0" y="674.0"/>
      <point x="516.0" y="657.0" type="qcurve"/>
      <point x="494.0" y="613.0" type="line"/>
      <point x="466.0" y="629.0"/>
      <point x="425.0" y="644.0"/>
      <point x="407.0" y="644.0" type="qcurve" smooth="yes"/>
      <point x="363.0" y="644.0"/>
      <point x="318.0" y="587.0"/>
      <point x="306.0" y="526.0" type="qcurve"/>
      <point x="233.0" y="119.0" type="line" smooth="yes"/>
      <point x="219.0" y="43.0"/>
      <point x="152.85034013605443" y="-31.0"/>
    </contour>
    <contour>
      <point x="446.0" y="402.0" type="line"/>
      <point x="77.0" y="402.0" type="line"/>
      <point x="77.0" y="448.0" type="line"/>
      <point x="446.0" y="448.0" type="line"/>
    </contour>
  </outline>
</glyph>
<glyph name="oogonek" format="2">
  <advance width="599"/>
  <unicode hex="01EB"/>
  <outline>
    <contour>
      <point x="85.0" y="263.0" type="qcurve"/>
      <point x="85.0" y="166.0"/>
      <point x="206.0" y="40.0"/>
      <point x="300.0" y="40.0" type="qcurve"/>
      <point x="393.0" y="40.0"/>
      <point x="514.0" y="166.0"/>
      <point x="514.0" y="263.0" type="qcurve"/>
      <point x="514.0" y="358.0"/>
      <point x="393.0" y="481.0"/>
      <point x="300.0" y="481.0" type="qcurve"/>
      <point x="206.0" y="481.0"/>
      <point x="85.0" y="358.0"/>
    </contour>
    <contour>
      <point x="300.0" y="-10.0" type="qcurve"/>
      <point x="183.0" y="-10.0"/>
      <point x="32.0" y="144.0"/>
      <point x="32.0" y="263.0" type="qcurve"/>
      <point x="32.0" y="380.0"/>
      <point x="183.0" y="531.0"/>
      <point x="300.0" y="531.0" type="qcurve"/>
      <point x="417.0" y="531.0"/>
      <point x="567.0" y="380.0"/>
      <point x="567.0" y="263.0" type="qcurve"/>
      <point x="567.0" y="180.0"/>
      <point x="484.0" y="50.0"/>
      <point x="413.0" y="16.0" type="qcurve"/>
      <point x="340.0" y="-19.0"/>
      <point x="281.0" y="-87.13333333333333"/>
      <point x="281.0" y="-120.0" type="qcurve"/>
      <point x="281.0" y="-145.0"/>
      <point x="312.0" y="-178.0"/>
      <point x="342.0" y="-178.0" type="qcurve"/>
      <point x="360.0" y="-178.0"/>
      <point x="389.0" y="-163.0"/>
      <point x="407.0" y="-143.0" type="qcurve"/>
      <point x="440.0" y="-167.0" type="line"/>
      <point x="421.0" y="-192.0"/>
      <point x="373.0" y="-221.0"/>
      <point x="337.0" y="-221.0" type="qcurve"/>
      <point x="293.0" y="-221.0"/>
      <point x="235.0" y="-169.0"/>
      <point x="235.0" y="-127.0" type="qcurve"/>
      <point x="235.0" y="-80.0"/>
      <point x="302.0" y="-4.0"/>
      <point x="380.0" y="26.0" type="qcurve"/>
      <point x="350.0" y="-3.0" type="line"/>
      <point x="316.0" y="-10.0"/>
      <point x="305.0" y="-10.0"/>
    </contour>
  </outline>
</glyph>
<glyph name="nhookleft" format="2">
  <advance width="610"/>
  <unicode hex="0272"/>
  <outline>
    <contour>
      <point x="330.0" y="531.0" type="qcurve"/>
      <point x="413.0" y="531.0"/>
      <point x="501.0" y="426.0"/>
      <point x="501.0" y="315.0" type="qcurve"/>
      <point x="501.0" y="0.0" type="line"/>
      <point x="451.0" y="0.0" type="line"/>
      <point x="451.0" y="313.0" type="line"/>
      <point x="451.0" y="400.0"/>
      <point x="382.0" y="483.0"/>
      <point x="315.0" y="483.0" type="qcurve"/>
      <point x="238.0" y="483.0"/>
      <point x="138.0" y="383.0"/>
      <point x="138.0" y="318.0" type="qcurve"/>
      <point x="138.0" y="0.0" type="line"/>
      <point x="112.0" y="0.0"/>
      <point x="114.0" y="0.0"/>
      <point x="88.0" y="0.0" type="qcurve"/>
      <point x="88.0" y="520.0" type="line"/>
      <point x="136.0" y="520.0" type="line"/>
      <point x="141.0" y="410.0" type="line"/>
      <point x="135.0" y="410.0" type="line"/>
      <point x="151.0" y="459.0"/>
      <point x="263.0" y="531.0"/>
    </contour>
    <contour>
      <point x="88.0" y="9.0" type="line"/>
      <point x="138.0" y="12.0" type="line"/>
      <point x="138.0" y="-52.0" type="line" smooth="yes"/>
      <point x="138.0" y="-116.0"/>
      <point x="69.0" y="-195.0"/>
      <point x="2.0" y="-195.0" type="qcurve"/>
      <point x="-19.0" y="-152.0" type="line"/>
      <point x="50.0" y="-152.0"/>
      <point x="88.0" y="-84.0"/>
      <point x="88.0" y="0.0" type="qcurve"/>
    </contour>
  </outline>
</glyph>
<glyph name="ringhalfright" format="2">
  <advance width="215"/>
  <unicode hex="02BE"/>
  <outline>
    <contour>
      <point x="55.0" y="539.0" type="qcurve"/>
      <point x="55.0" y="578.0" type="line"/>
      <point x="82.0" y="578.0"/>
      <point x="120.0" y="614.0"/>
      <point x="120.0" y="639.0" type="qcurve"/>
      <point x="120.0" y="667.0"/>
      <point x="82.0" y="701.0"/>
      <point x="55.0" y="701.0" type="qcurve"/>
      <point x="55.0" y="740.0" type="line"/>
      <point x="97.0" y="740.0"/>
      <point x="160.0" y="680.0"/>
      <point x="160.0" y="639.0" type="qcurve"/>
      <point x="160.0" y="599.0"/>
      <point x="97.0" y="539.0"/>
    </contour>
  </outline>
</glyph>
<glyph name="circumflex" format="2">
  <advance width="368"/>
  <unicode hex="02C6"/>
  <outline>
    <contour>
      <point x="293.0" y="616.0" type="line"/>
      <point x="166.0" y="713.0" type="line"/>
      <point x="196.0" y="713.0" type="line"/>
      <point x="69.0" y="616.0" type="line"/>
      <point x="41.0" y="641.0" type="line"/>
      <point x="150.0" y="742.0" type="line"/>
      <point x="212.0" y="742.0" type="line"/>
      <point x="321.0" y="641.0" type="line"/>
    </contour>
  </outline>
</glyph>
<glyph name="verticallinelowmod" format="2">
  <advance width="230"/>
  <unicode hex="02CC"/>
  <outline>
    <contour>
      <point x="140.0" y="197.0" type="line"/>
      <point x="140.0" y="-147.0" type="line"/>
      <point x="90.0" y="-147.0" type="line"/>
      <point x="90.0" y="197.0" type="line"/>
    </contour>
  </outline>
</glyph>
<glyph name="breve" format="2">
  <advance width="364"/>
  <unicode hex="02D8"/>
  <outline>
    <contour>
      <point x="182.0" y="600.0" type="qcurve" smooth="yes"/>
      <point x="128.0" y="600.0"/>
      <point x="52.0" y="671.0"/>
      <point x="40.0" y="732.0" type="qcurve"/>
      <point x="83.0" y="737.0" type="line"/>
      <point x="93.0" y="692.0"/>
      <point x="148.0" y="641.0"/>
      <point x="182.0" y="641.0" type="qcurve" smooth="yes"/>
      <point x="216.0" y="641.0"/>
      <point x="271.0" y="692.0"/>
      <point x="281.0" y="737.0" type="qcurve"/>
      <point x="324.0" y="732.0" type="line"/>
      <point x="312.0" y="671.0"/>
      <point x="236.0" y="600.0"/>
    </contour>
  </outline>
</glyph>
<glyph name="ogonek" format="2">
  <advance width="295"/>
  <unicode hex="02DB"/>
  <outline>
    <contour>
      <point x="149.0" y="-221.0" type="qcurve" smooth="yes"/>
      <point x="105.0" y="-221.0"/>
      <point x="47.0" y="-167.0"/>
      <point x="47.0" y="-124.0" type="qcurve" smooth="yes"/>
      <point x="47.0" y="-75.0"/>
      <point x="127.0" y="1.0"/>
      <point x="202.0" y="26.0" type="qcurve"/>
      <point x="214.0" y="17.0" type="line"/>
      <point x="214.0" y="0.0" type="line"/>
      <point x="158.0" y="-21.0"/>
      <point x="93.0" y="-86.0"/>
      <point x="93.0" y="-118.0" type="qcurve" smooth="yes"/>
      <point x="93.0" y="-144.0"/>
      <point x="124.0" y="-179.0"/>
      <point x="154.0" y="-179.0" type="qcurve" smooth="yes"/>
      <point x="172.0" y="-179.0"/>
      <point x="203.0" y="-163.0"/>
      <point x="219.0" y="-143.0" type="qcurve"/>
      <point x="252.0" y="-167.0" type="line"/>
      <point x="233.0" y="-194.0"/>
      <point x="185.0" y="-221.0"/>
    </contour>
  </outline>
</glyph>
<glyph name="tildecomb" format="2">
  <advance width="419"/>
  <unicode hex="0303"/>
  <outline>
    <contour>
      <point x="101.0" y="628.0" type="qcurve"/>
      <point x="60.0" y="632.0" type="line"/>
      <point x="65.0" y="674.0"/>
      <point x="118.0" y="728.0"/>
      <point x="158.0" y="728.0" type="qcurve" smooth="yes"/>
      <point x="177.0" y="728.0"/>
      <point x="211.0" y="712.0"/>
      <point x="233.0" y="689.0" type="qcurve" smooth="yes"/>
      <point x="249.0" y="673.0"/>
      <point x="267.0" y="665.0"/>
      <point x="276.0" y="665.0" type="qcurve"/>
      <point x="292.0" y="665.0"/>
      <point x="314.0" y="693.0"/>
      <point x="316.0" y="712.0" type="qcurve"/>
      <point x="359.0" y="708.0" type="line"/>
      <point x="355.0" y="672.0"/>
      <point x="310.0" y="622.0"/>
      <point x="274.0" y="622.0" type="qcurve"/>
      <point x="253.0" y="622.0"/>
      <point x="217.0" y="641.0"/>
      <point x="193.0" y="665.0" type="qcurve" smooth="yes"/>
      <point x="178.0" y="680.0"/>
      <point x="160.0" y="685.0"/>
      <point x="153.0" y="685.0" type="qcurve" smooth="yes"/>
      <point x="132.0" y="685.0"/>
      <point x="105.0" y="656.0"/>
    </contour>
  </outline>
</glyph>
<glyph name="dotaccentcomb" format="2">
  <advance width="227"/>
  <unicode hex="0307"/>
  <outline>
    <contour>
      <point x="151.0" y="659.0" type="qcurve" smooth="yes"/>
      <point x="151.0" y="639.0"/>
      <point x="127.0" y="614.0"/>
      <point x="105.0" y="614.0" type="qcurve" smooth="yes"/>
      <point x="83.0" y="614.0"/>
      <point x="59.0" y="638.0"/>
      <point x="59.0" y="659.0" type="qcurve" smooth="yes"/>
      <point x="59.0" y="679.0"/>
      <point x="83.0" y="704.0"/>
      <point x="105.0" y="704.0" type="qcurve" smooth="yes"/>
      <point x="127.0" y="704.0"/>
      <point x="151.0" y="680.0"/>
    </contour>
  </outline>
</glyph>
<glyph name="hungarumlautcomb" format="2">
  <unicode hex="030B"/>
  <outline>
    <contour>
      <point x="221.0" y="690.0" type="line"/>
      <point x="67.0" y="589.0" type="line"/>
      <point x="46.0" y="620.0" type="line"/>
      <point x="188.0" y="735.0" type="line"/>
    </contour>
    <contour>
      <point x="371.0" y="690.0" type="line"/>
      <point x="217.0" y="589.0" type="line"/>
      <point x="196.0" y="620.0" type="line"/>
      <point x="338.0" y="735.0" type="line"/>
    </contour>
  </outline>
</glyph>
<glyph name="caroncomb" format="2">
  <advance width="362"/>
  <unicode hex="030C"/>
  <outline>
    <contour>
      <point x="196.0" y="645.0" type="line"/>
      <point x="166.0" y="645.0" type="line"/>
      <point x="293.0" y="742.0" type="line"/>
      <point x="321.0" y="717.0" type="line"/>
      <point x="212.0" y="616.0" type="line"/>
      <point x="150.0" y="616.0" type="line"/>
      <point x="41.0" y="717.0" type="line"/>
      <point x="69.0" y="742.0" type="line"/>
    </contour>
  </outline>
</glyph>
<glyph name="dotbelowcomb" format="2">
  <unicode hex="0323"/>
  <outline>
    <contour>
      <point x="151.0" y="-121.0" type="qcurve" smooth="yes"/>
      <point x="151.0" y="-141.0"/>
      <point x="127.0" y="-166.0"/>
      <point x="105.0" y="-166.0" type="qcurve" smooth="yes"/>
      <point x="83.0" y="-166.0"/>
      <point x="59.0" y="-142.0"/>
      <point x="59.0" y="-121.0" type="qcurve" smooth="yes"/>
      <point x="59.0" y="-101.0"/>
      <point x="83.0" y="-76.0"/>
      <point x="105.0" y="-76.0" type="qcurve" smooth="yes"/>
      <point x="127.0" y="-76.0"/>
      <point x="151.0" y="-100.0"/>
    </contour>
  </outline>
</glyph>
<glyph name="dieresisbelowcomb" format="2">
  <unicode hex="0324"/>
  <outline>
    <contour>
      <point x="287.0" y="-150.0" type="qcurve"/>
      <point x="264.0" y="-150.0"/>
      <point x="243.0" y="-131.0"/>
      <point x="243.0" y="-111.0" type="qcurve"/>
      <point x="243.0" y="-99.0" type="line" smooth="yes"/>
      <point x="243.0" y="-79.0"/>
      <point x="265.0" y="-60.0"/>
      <point x="288.0" y="-60.0" type="qcurve"/>
      <point x="311.0" y="-60.0"/>
      <point x="333.0" y="-78.0"/>
      <point x="333.0" y="-99.0" type="qcurve"/>
      <point x="333.0" y="-111.0" type="line" smooth="yes"/>
      <point x="333.0" y="-132.0"/>
      <point x="312.0" y="-150.0"/>
    </contour>
    <contour>
      <point x="103.0" y="-150.0" type="qcurve"/>
      <point x="80.0" y="-150.0"/>
      <point x="59.0" y="-131.0"/>
      <point x="59.0" y="-111.0" type="qcurve"/>
      <point x="59.0" y="-99.0" type="line" smooth="yes"/>
      <point x="59.0" y="-79.0"/>
      <point x="81.0" y="-60.0"/>
      <point x="103.0" y="-60.0" type="qcurve"/>
      <point x="127.0" y="-60.0"/>
      <point x="149.0" y="-78.0"/>
      <point x="149.0" y="-99.0" type="qcurve"/>
      <point x="149.0" y="-111.0" type="line" smooth="yes"/>
      <point x="149.0" y="-132.0"/>
      <point x="128.0" y="-150.0"/>
    </contour>
  </outline>
</glyph>
<glyph name="commaaccentcomb" format="2">
  <unicode hex="0326"/>
  <outline>
    <contour>
      <point x="86.0" y="-186.0" type="qcurve"/>
      <point x="65.0" y="-162.0" type="line"/>
      <point x="89.0" y="-147.0"/>
      <point x="112.0" y="-126.0"/>
      <point x="112.0" y="-113.0" type="qcurve" smooth="yes"/>
      <point x="112.0" y="-107.0"/>
      <point x="105.0" y="-96.0"/>
      <point x="90.0" y="-90.0" type="qcurve" smooth="yes"/>
      <point x="80.0" y="-86.0"/>
      <point x="68.0" y="-68.0"/>
      <point x="68.0" y="-57.0" type="qcurve"/>
      <point x="68.0" y="-43.0"/>
      <point x="89.0" y="-24.0"/>
      <point x="104.0" y="-24.0" type="qcurve"/>
      <point x="132.0" y="-24.0"/>
      <point x="163.0" y="-57.0"/>
      <point x="163.0" y="-85.0" type="qcurve" smooth="yes"/>
      <point x="163.0" y="-118.0"/>
      <point x="126.0" y="-163.0"/>
    </contour>
  </outline>
</glyph>
<glyph name="strokeshortcomb" format="2">
  <unicode hex="0335"/>
  <outline>
    <contour>
      <point x="318.0" y="275.0" type="line"/>
      <point x="50.0" y="275.0" type="line"/>
      <point x="50.0" y="320.0" type="line"/>
      <point x="318.0" y="320.0" type="line"/>
    </contour>
  </outline>
</glyph>
<glyph name="ain-ar" format="2">
  <advance width="590"/>
  <unicode hex="0639"/>
  <outline>
    <contour>
      <point x="499.0" y="151.0" type="qcurve"/>
      <point x="484.0" y="51.0" type="line"/>
      <point x="311.0" y="24.0"/>
      <point x="124.0" y="-103.0"/>
      <point x="124.0" y="-194.0" type="qcurve" smooth="yes"/>
      <point x="124.0" y="-272.0"/>
      <point x="262.0" y="-354.0"/>
      <point x="392.0" y="-354.0" type="qcurve" smooth="yes"/>
      <point x="461.0" y="-354.0"/>
      <point x="583.0" y="-334.0"/>
      <point x="636.0" y="-314.0" type="qcurve"/>
      <point x="589.0" y="-280.0" type="line"/>
      <point x="642.0" y="-452.0" type="line"/>
      <point x="663.0" y="-395.0" type="line"/>
      <point x="591.0" y="-427.0"/>
      <point x="451.0" y="-456.0"/>
      <point x="359.0" y="-456.0" type="qcurve" smooth="yes"/>
      <point x="207.0" y="-456.0"/>
      <point x="20.0" y="-322.0"/>
      <point x="20.0" y="-208.0" type="qcurve" smooth="yes"/>
      <point x="20.0" y="-66.0"/>
      <point x="279.0" y="128.0"/>
    </contour>
    <contour>
      <point x="380.0" y="102.0" type="qcurve"/>
      <point x="303.0" y="16.0" type="line"/>
      <point x="190.0" y="45.0"/>
      <point x="73.0" y="157.0"/>
      <point x="73.0" y="236.0" type="qcurve" smooth="yes"/>
      <point x="73.0" y="325.0"/>
      <point x="199.0" y="438.0"/>
      <point x="298.0" y="438.0" type="qcurve" smooth="yes"/>
      <point x="351.0" y="438.0"/>
      <point x="452.0" y="407.0"/>
      <point x="491.0" y="378.0" type="qcurve"/>
      <point x="482.0" y="430.0" type="line"/>
      <point x="396.0" y="267.0" type="line"/>
      <point x="445.0" y="295.0" type="line"/>
      <point x="411.0" y="316.0"/>
      <point x="339.0" y="336.0"/>
      <point x="298.0" y="336.0" type="qcurve" smooth="yes"/>
      <point x="243.0" y="336.0"/>
      <point x="177.0" y="282.0"/>
      <point x="177.0" y="236.0" type="qcurve" smooth="yes"/>
      <point x="177.0" y="174.0"/>
      <point x="284.0" y="102.0"/>
    </contour>
  </outline>
</glyph>
<glyph name="quoteleft" format="2">
  <advance width="238"/>
  <unicode hex="2018"/>
  <note>
quoteleft
</note>
  <outline>
    <contour>
      <point x="129.0" y="481.0" type="qcurve"/>
      <point x="98.0" y="481.0"/>
      <point x="65.0" y="524.0"/>
      <point x="65.0" y="562.0" type="qcurve" smooth="yes"/>
      <point x="65.0" y="609.0"/>
      <point x="112.0" y="676.0"/>
      <point x="165.0" y="707.0" type="qcurve"/>
      <point x="183.0" y="681.0" type="line"/>
      <point x="155.0" y="664.0"/>
      <point x="125.0" y="626.0"/>
      <point x="125.0" y="605.0" type="qcurve" smooth="yes"/>
      <point x="125.0" y="593.0"/>
      <point x="131.0" y="573.0"/>
      <point x="148.0" y="559.0" type="qcurve" smooth="yes"/>
      <point x="157.0" y="552.0"/>
      <point x="170.0" y="532.0"/>
      <point x="170.0" y="521.0" type="qcurve"/>
      <point x="170.0" y="503.0"/>
      <point x="148.0" y="481.0"/>
    </contour>
  </outline>
</glyph>
<glyph name="perthousand" format="2">
  <advance width="1196"/>
  <unicode hex="2030"/>
  <note>
perthousand
</note>
  <outline>
    <contour>
      <point x="354.0" y="518.0" type="qcurve"/>
      <point x="354.0" y="438.0"/>
      <point x="266.0" y="329.0"/>
      <point x="200.0" y="329.0" type="qcurve"/>
      <point x="132.0" y="329.0"/>
      <point x="47.0" y="436.0"/>
      <point x="47.0" y="518.0" type="qcurve"/>
      <point x="47.0" y="601.0"/>
      <point x="133.0" y="709.0"/>
      <point x="201.0" y="709.0" type="qcurve"/>
      <point x="269.0" y="709.0"/>
      <point x="354.0" y="601.0"/>
    </contour>
    <contour>
      <point x="96.0" y="518.0" type="qcurve"/>
      <point x="96.0" y="451.0"/>
      <point x="151.0" y="375.0"/>
      <point x="201.0" y="375.0" type="qcurve"/>
      <point x="250.0" y="375.0"/>
      <point x="305.0" y="450.0"/>
      <point x="305.0" y="518.0" type="qcurve"/>
      <point x="305.0" y="587.0"/>
      <point x="250.0" y="663.0"/>
      <point x="200.0" y="663.0" type="qcurve"/>
      <point x="152.0" y="663.0"/>
      <point x="96.0" y="585.0"/>
    </contour>
    <contour>
      <point x="797.0" y="180.0" type="qcurve"/>
      <point x="797.0" y="100.0"/>
      <point x="709.0" y="-9.0"/>
      <point x="643.0" y="-9.0" type="qcurve"/>
      <point x="575.0" y="-9.0"/>
      <point x="490.0" y="98.0"/>
      <point x="490.0" y="180.0" type="qcurve"/>
      <point x="490.0" y="263.0"/>
      <point x="576.0" y="371.0"/>
      <point x="644.0" y="371.0" type="qcurve"/>
      <point x="712.0" y="371.0"/>
      <point x="797.0" y="263.0"/>
    </contour>
    <contour>
      <point x="539.0" y="180.0" type="qcurve"/>
      <point x="539.0" y="113.0"/>
      <point x="594.0" y="37.0"/>
      <point x="644.0" y="37.0" type="qcurve"/>
      <point x="693.0" y="37.0"/>
      <point x="748.0" y="112.0"/>
      <point x="748.0" y="180.0" type="qcurve"/>
      <point x="748.0" y="249.0"/>
      <point x="693.0" y="325.0"/>
      <point x="643.0" y="325.0" type="qcurve"/>
      <point x="595.0" y="325.0"/>
      <point x="539.0" y="247.0"/>
    </contour>
    <contour>
      <point x="1147.0" y="180.0" type="qcurve"/>
      <point x="1147.0" y="100.0"/>
      <point x="1059.0" y="-9.0"/>
      <point x="993.0" y="-9.0" type="qcurve"/>
      <point x="925.0" y="-9.0"/>
      <point x="840.0" y="98.0"/>
      <point x="840.0" y="180.0" type="qcurve"/>
      <point x="840.0" y="263.0"/>
      <point x="926.0" y="371.0"/>
      <point x="994.0" y="371.0" type="qcurve"/>
      <point x="1062.0" y="371.0"/>
      <point x="1147.0" y="263.0"/>
    </contour>
    <contour>
      <point x="889.0" y="180.0" type="qcurve"/>
      <point x="889.0" y="113.0"/>
      <point x="944.0" y="37.0"/>
      <point x="994.0" y="37.0" type="qcurve"/>
      <point x="1043.0" y="37.0"/>
      <point x="1098.0" y="112.0"/>
      <point x="1098.0" y="180.0" type="qcurve"/>
      <point x="1098.0" y="249.0"/>
      <point x="1043.0" y="325.0"/>
      <point x="993.0" y="325.0" type="qcurve"/>
      <point x="945.0" y="325.0"/>
      <point x="889.0" y="247.0"/>
    </contour>
    <contour>
      <point x="222.0" y="0.0" type="line"/>
      <point x="164.0" y="0.0" type="line"/>
      <point x="433.0" y="405.0" type="line"/>
      <point x="630.0" y="700.0" type="line"/>
      <point x="688.0" y="700.0" type="line"/>
      <point x="464.0" y="364.0" type="line"/>
    </contour>
  </outline>
</glyph>
<glyph name="fraction" format="2">
  <advance width="606"/>
  <unicode hex="2044"/>
  <note>
fraction
</note>
  <outline>
    <contour>
      <point x="97.0" y="0.0" type="line"/>
      <point x="39.0" y="0.0" type="line"/>
      <point x="308.0" y="405.0" type="line"/>
      <point x="505.0" y="700.0" type="line"/>
      <point x="563.0" y="700.0" type="line"/>
      <point x="339.0" y="364.0" type="line"/>
    </contour>
  </outline>
</glyph>
<glyph name="colonsign" format="2">
  <advance width="637"/>
  <unicode hex="20A1"/>
  <outline>
    <contour>
      <point x="108.0" y="-60.0" type="line"/>
      <point x="66.0" y="-42.0" type="line"/>
      <point x="468.0" y="780.0" type="line"/>
      <point x="515.0" y="762.0" type="line"/>
    </contour>
    <contour>
      <point x="258.0" y="-85.0" type="line"/>
      <point x="216.0" y="-67.0" type="line"/>
      <point x="618.0" y="755.0" type="line"/>
      <point x="665.0" y="737.0" type="line"/>
    </contour>
    <contour>
      <point x="605.0" y="130.0" type="qcurve"/>
      <point x="632.0" y="86.0" type="line"/>
      <point x="596.0" y="44.0"/>
      <point x="467.0" y="-10.0"/>
      <point x="403.0" y="-10.0" type="qcurve" smooth="yes"/>
      <point x="249.0" y="-10.0"/>
      <point x="50.0" y="193.0"/>
      <point x="50.0" y="350.0" type="qcurve" smooth="yes"/>
      <point x="50.0" y="505.0"/>
      <point x="243.0" y="705.0"/>
      <point x="393.0" y="705.0" type="qcurve" smooth="yes"/>
      <point x="463.0" y="705.0"/>
      <point x="605.0" y="637.0"/>
      <point x="645.0" y="585.0" type="qcurve"/>
      <point x="608.0" y="546.0" type="line"/>
      <point x="575.0" y="594.0"/>
      <point x="454.0" y="655.0"/>
      <point x="393.0" y="655.0" type="qcurve" smooth="yes"/>
      <point x="266.0" y="655.0"/>
      <point x="103.0" y="483.0"/>
      <point x="103.0" y="350.0" type="qcurve" smooth="yes"/>
      <point x="103.0" y="215.0"/>
      <point x="272.0" y="40.0"/>
      <point x="403.0" y="40.0" type="qcurve" smooth="yes"/>
      <point x="463.0" y="40.0"/>
      <point x="577.0" y="91.0"/>
    </contour>
  </outline>
</glyph>
<glyph name="naira" format="2">
  <advance width="795"/>
  <unicode hex="20A6"/>
  <outline>
    <contour>
      <point x="122.0" y="320.0" type="line"/>
      <point x="10.0" y="320.0" type="line"/>
      <point x="10.0" y="368.0" type="line"/>
      <point x="124.0" y="368.0" type="line"/>
      <point x="148.0" y="366.0" type="line"/>
      <point x="633.0" y="366.0" type="line"/>
      <point x="662.0" y="368.0" type="line"/>
      <point x="785.0" y="368.0" type="line"/>
      <point x="785.0" y="320.0" type="line"/>
      <point x="657.0" y="320.0" type="line"/>
      <point x="633.0" y="322.0" type="line"/>
      <point x="148.0" y="322.0" type="line"/>
    </contour>
    <contour>
      <point x="623.0" y="417.0" type="qcurve"/>
      <point x="623.0" y="700.0" type="line"/>
      <point x="673.0" y="700.0" type="line"/>
      <point x="673.0" y="0.0" type="line"/>
      <point x="625.0" y="0.0" type="line"/>
      <point x="136.0" y="641.0" type="line"/>
      <point x="150.0" y="669.0" type="line"/>
      <point x="152.0" y="620.0"/>
      <point x="158.0" y="365.0"/>
      <point x="158.0" y="344.0" type="qcurve"/>
      <point x="158.0" y="0.0" type="line"/>
      <point x="108.0" y="0.0" type="line"/>
      <point x="108.0" y="700.0" type="line"/>
      <point x="154.0" y="700.0" type="line"/>
      <point x="640.0" y="63.0" type="line"/>
      <point x="628.0" y="37.0" type="line"/>
      <point x="624.0" y="79.0"/>
      <point x="624.0" y="301.0"/>
    </contour>
  </outline>
</glyph>
<glyph name="peseta" format="2">
  <advance width="791"/>
  <unicode hex="20A7"/>
  <outline>
    <contour>
      <point x="719.0" y="456.0" type="line"/>
      <point x="92.0" y="456.0" type="line"/>
      <point x="92.0" y="505.0" type="line"/>
      <point x="719.0" y="505.0" type="line"/>
    </contour>
    <contour>
      <point x="188.0" y="700.0" type="line"/>
      <point x="457.0" y="700.0" type="line" smooth="yes"/>
      <point x="537.0" y="700.0"/>
      <point x="641.0" y="586.0"/>
      <point x="641.0" y="498.0" type="qcurve" smooth="yes"/>
      <point x="641.0" y="404.0"/>
      <point x="537.0" y="283.0"/>
      <point x="457.0" y="283.0" type="qcurve"/>
      <point x="222.0" y="283.0" type="line"/>
      <point x="238.0" y="305.0" type="line"/>
      <point x="238.0" y="0.0" type="line"/>
      <point x="188.0" y="0.0" type="line"/>
    </contour>
    <contour>
      <point x="221.0" y="333.0" type="line"/>
      <point x="466.0" y="333.0" type="line" smooth="yes"/>
      <point x="519.0" y="333.0"/>
      <point x="588.0" y="427.0"/>
      <point x="588.0" y="500.0" type="qcurve" smooth="yes"/>
      <point x="588.0" y="565.0"/>
      <point x="519.0" y="650.0"/>
      <point x="466.0" y="650.0" type="qcurve"/>
      <point x="221.0" y="650.0" type="line"/>
      <point x="238.0" y="671.0" type="line"/>
      <point x="238.0" y="321.0" type="line"/>
    </contour>
  </outline>
</glyph>
<glyph name="won" format="2">
  <advance width="967"/>
  <unicode hex="20A9"/>
  <outline>
    <contour>
      <point x="169.0" y="328.0" type="line"/>
      <point x="56.0" y="328.0" type="line"/>
      <point x="56.0" y="376.0" type="line"/>
      <point x="162.0" y="376.0" type="line"/>
      <point x="186.0" y="374.0" type="line"/>
      <point x="778.0" y="374.0" type="line"/>
      <point x="807.0" y="376.0" type="line"/>
      <point x="917.0" y="376.0" type="line"/>
      <point x="917.0" y="328.0" type="line"/>
      <point x="802.0" y="328.0" type="line"/>
      <point x="778.0" y="330.0" type="line"/>
      <point x="195.0" y="330.0" type="line"/>
    </contour>
    <contour>
      <point x="251.0" y="0.0" type="line"/>
      <point x="50.0" y="700.0" type="line"/>
      <point x="106.0" y="700.0" type="line"/>
      <point x="241.0" y="216.0" type="line" smooth="yes"/>
      <point x="259.0" y="153.0"/>
      <point x="274.0" y="96.0"/>
      <point x="285.0" y="38.0" type="qcurve"/>
      <point x="279.0" y="38.0" type="line"/>
      <point x="296.0" y="96.0"/>
      <point x="320.0" y="160.0"/>
      <point x="344.0" y="222.0" type="qcurve"/>
      <point x="454.0" y="502.0" type="line"/>
      <point x="505.0" y="502.0" type="line"/>
      <point x="622.0" y="216.0" type="line" smooth="yes"/>
      <point x="649.0" y="151.0"/>
      <point x="674.0" y="96.0"/>
      <point x="687.0" y="38.0" type="qcurve"/>
      <point x="681.0" y="38.0" type="line"/>
      <point x="693.0" y="96.0"/>
      <point x="706.0" y="152.0"/>
      <point x="726.0" y="222.0" type="qcurve"/>
      <point x="863.0" y="700.0" type="line"/>
      <point x="917.0" y="700.0" type="line"/>
      <point x="714.0" y="0.0" type="line"/>
      <point x="659.0" y="0.0" type="line"/>
      <point x="466.0" y="461.0" type="line"/>
      <point x="492.0" y="460.0" type="line"/>
      <point x="306.0" y="0.0" type="line"/>
    </contour>
  </outline>
</glyph>
<glyph name="kip" format="2">
  <advance width="759"/>
  <unicode hex="20AD"/>
  <outline>
    <contour>
      <point x="360.0" y="361.0" type="line"/>
      <point x="360.0" y="409.0" type="line"/>
      <point x="623.0" y="409.0" type="line"/>
      <point x="623.0" y="361.0" type="line"/>
    </contour>
    <contour>
      <point x="154.0" y="409.0" type="line"/>
      <point x="154.0" y="361.0" type="line"/>
      <point x="40.0" y="361.0" type="line"/>
      <point x="40.0" y="409.0" type="line"/>
    </contour>
    <contour>
      <point x="135.0" y="0.0" type="line"/>
      <point x="135.0" y="700.0" type="line"/>
      <point x="185.0" y="700.0" type="line"/>
      <point x="185.0" y="0.0" type="line"/>
    </contour>
    <contour>
      <point x="164.0" y="217.0" type="line"/>
      <point x="164.0" y="284.0" type="line"/>
      <point x="588.0" y="700.0" type="line"/>
      <point x="658.0" y="700.0" type="line"/>
    </contour>
    <contour>
      <point x="608.0" y="0.0" type="line"/>
      <point x="315.0" y="388.0" type="line"/>
      <point x="351.0" y="422.0" type="line"/>
      <point x="671.0" y="0.0" type="line"/>
    </contour>
  </outline>
</glyph>
<glyph name="peso" format="2">
  <advance width="775"/>
  <unicode hex="20B1"/>
  <outline>
    <contour>
      <point x="203.0" y="407.0" type="line"/>
      <point x="90.0" y="407.0" type="line"/>
      <point x="90.0" y="455.0" type="line"/>
      <point x="206.0" y="455.0" type="line"/>
      <point x="229.0" y="455.0" type="line"/>
      <point x="593.0" y="455.0" type="line"/>
      <point x="628.0" y="455.0" type="line"/>
      <point x="705.0" y="455.0" type="line"/>
      <point x="705.0" y="407.0" type="line"/>
      <point x="613.0" y="407.0" type="line"/>
      <point x="581.0" y="407.0" type="line"/>
      <point x="227.0" y="407.0" type="line"/>
    </contour>
    <contour>
      <point x="204.0" y="528.0" type="line"/>
      <point x="90.0" y="528.0" type="line"/>
      <point x="90.0" y="576.0" type="line"/>
      <point x="209.0" y="576.0" type="line"/>
      <point x="231.0" y="576.0" type="line"/>
      <point x="587.0" y="576.0" type="line"/>
      <point x="624.0" y="576.0" type="line"/>
      <point x="705.0" y="576.0" type="line"/>
      <point x="705.0" y="528.0" type="line"/>
      <point x="629.0" y="528.0" type="line"/>
      <point x="593.0" y="528.0" type="line"/>
      <point x="230.0" y="528.0" type="line"/>
    </contour>
    <contour>
      <point x="188.0" y="700.0" type="line"/>
      <point x="457.0" y="700.0" type="line" smooth="yes"/>
      <point x="537.0" y="700.0"/>
      <point x="641.0" y="586.0"/>
      <point x="641.0" y="498.0" type="qcurve" smooth="yes"/>
      <point x="641.0" y="404.0"/>
      <point x="537.0" y="283.0"/>
      <point x="457.0" y="283.0" type="qcurve"/>
      <point x="222.0" y="283.0" type="line"/>
      <point x="238.0" y="305.0" type="line"/>
      <point x="238.0" y="0.0" type="line"/>
      <point x="188.0" y="0.0" type="line"/>
    </contour>
    <contour>
      <point x="221.0" y="333.0" type="line"/>
      <point x="466.0" y="333.0" type="line" smooth="yes"/>
      <point x="519.0" y="333.0"/>
      <point x="588.0" y="427.0"/>
      <point x="588.0" y="500.0" type="qcurve" smooth="yes"/>
      <point x="588.0" y="565.0"/>
      <point x="519.0" y="650.0"/>
      <point x="466.0" y="650.0" type="qcurve"/>
      <point x="221.0" y="650.0" type="line"/>
      <point x="238.0" y="671.0" type="line"/>
      <point x="238.0" y="321.0" type="line"/>
    </contour>
  </outline>
</glyph>
<glyph name="guarani" format="2">
  <advance width="766"/>
  <unicode hex="20B2"/>
  <outline>
    <contour>
      <point x="50.0" y="347.0" type="qcurve"/>
      <point x="50.0" y="503.0"/>
      <point x="254.0" y="705.0"/>
      <point x="405.0" y="705.0" type="qcurve" smooth="yes"/>
      <point x="484.0" y="705.0"/>
      <point x="635.0" y="638.0"/>
      <point x="673.0" y="587.0" type="qcurve"/>
      <point x="639.0" y="552.0" type="line"/>
      <point x="600.0" y="597.0"/>
      <point x="469.0" y="655.0"/>
      <point x="407.0" y="655.0" type="qcurve" smooth="yes"/>
      <point x="278.0" y="655.0"/>
      <point x="103.0" y="481.0"/>
      <point x="103.0" y="347.0" type="qcurve"/>
      <point x="103.0" y="213.0"/>
      <point x="283.0" y="40.0"/>
      <point x="417.0" y="40.0" type="qcurve" smooth="yes"/>
      <point x="529.0" y="40.0"/>
      <point x="674.0" y="166.0"/>
      <point x="674.0" y="260.0" type="qcurve" smooth="yes"/>
      <point x="674.0" y="308.0" type="line"/>
      <point x="692.0" y="282.0" type="line"/>
      <point x="416.0" y="282.0" type="line"/>
      <point x="416.0" y="332.0" type="line"/>
      <point x="721.0" y="332.0" type="line"/>
      <point x="722.0" y="324.0"/>
      <point x="724.0" y="287.0"/>
      <point x="724.0" y="273.0" type="qcurve" smooth="yes"/>
      <point x="724.0" y="150.0"/>
      <point x="545.0" y="-10.0"/>
      <point x="415.0" y="-10.0" type="qcurve"/>
      <point x="259.0" y="-10.0"/>
      <point x="50.0" y="191.0"/>
    </contour>
    <contour>
      <point x="422.0" y="797.0" type="line"/>
      <point x="422.0" y="-136.0" type="line"/>
      <point x="374.0" y="-136.0" type="line"/>
      <point x="374.0" y="797.0" type="line"/>
    </contour>
  </outline>
</glyph>
<glyph name="cedi" format="2">
  <advance width="679"/>
  <unicode hex="20B5"/>
  <outline>
    <contour>
      <point x="396.0" y="10.0" type="line"/>
      <point x="396.0" y="-84.0" type="line"/>
      <point x="348.0" y="-84.0" type="line"/>
      <point x="348.0" y="9.0" type="line"/>
      <point x="348.0" y="25.0" type="line"/>
      <point x="348.0" y="666.0" type="line"/>
      <point x="348.0" y="692.0" type="line"/>
      <point x="348.0" y="773.0" type="line"/>
      <point x="396.0" y="773.0" type="line"/>
      <point x="396.0" y="693.0" type="line"/>
      <point x="396.0" y="668.0" type="line"/>
      <point x="396.0" y="25.0" type="line"/>
    </contour>
    <contour>
      <point x="605.0" y="130.0" type="qcurve"/>
      <point x="632.0" y="86.0" type="line"/>
      <point x="596.0" y="44.0"/>
      <point x="467.0" y="-10.0"/>
      <point x="403.0" y="-10.0" type="qcurve" smooth="yes"/>
      <point x="249.0" y="-10.0"/>
      <point x="50.0" y="193.0"/>
      <point x="50.0" y="350.0" type="qcurve" smooth="yes"/>
      <point x="50.0" y="505.0"/>
      <point x="243.0" y="705.0"/>
      <point x="393.0" y="705.0" type="qcurve" smooth="yes"/>
      <point x="463.0" y="705.0"/>
      <point x="605.0" y="637.0"/>
      <point x="645.0" y="585.0" type="qcurve"/>
      <point x="608.0" y="546.0" type="line"/>
      <point x="575.0" y="594.0"/>
      <point x="454.0" y="655.0"/>
      <point x="393.0" y="655.0" type="qcurve" smooth="yes"/>
      <point x="266.0" y="655.0"/>
      <point x="103.0" y="483.0"/>
      <point x="103.0" y="350.0" type="qcurve" smooth="yes"/>
      <point x="103.0" y="215.0"/>
      <point x="272.0" y="40.0"/>
      <point x="403.0" y="40.0" type="qcurve" smooth="yes"/>
      <point x="463.0" y="40.0"/>
      <point x="577.0" y="91.0"/>
    </contour>
  </outline>
</glyph>
<glyph name="rupeeIndian" format="2">
  <advance width="561"/>
  <unicode hex="20B9"/>
  <outline>
    <contour>
      <point x="337.0" y="654.0" type="line"/>
      <point x="337.0" y="669.0" type="line"/>
      <point x="394.0" y="622.0"/>
      <point x="432.0" y="538.0"/>
      <point x="432.0" y="489.0" type="qcurve"/>
      <point x="432.0" y="400.0"/>
      <point x="316.0" y="290.0"/>
      <point x="227.0" y="290.0" type="qcurve"/>
      <point x="203.0" y="290.0" type="line"/>
      <point x="132.0" y="328.0" type="line"/>
      <point x="132.0" y="338.0" type="line"/>
      <point x="233.0" y="338.0" type="line"/>
      <point x="297.0" y="338.0"/>
      <point x="379.0" y="422.0"/>
      <point x="379.0" y="487.0" type="qcurve"/>
      <point x="379.0" y="560.0"/>
      <point x="286.0" y="654.0"/>
      <point x="214.0" y="654.0" type="qcurve"/>
      <point x="90.0" y="654.0" type="line"/>
      <point x="90.0" y="700.0" type="line"/>
      <point x="528.0" y="700.0" type="line"/>
      <point x="528.0" y="654.0" type="line"/>
    </contour>
    <contour>
      <point x="132.0" y="328.0" type="line"/>
      <point x="199.0" y="328.0" type="line"/>
      <point x="449.0" y="0.0" type="line"/>
      <point x="382.0" y="0.0" type="line"/>
    </contour>
    <contour>
      <point x="531.0" y="464.0" type="line"/>
      <point x="263.0" y="464.0" type="line"/>
      <point x="263.0" y="510.0" type="line"/>
      <point x="531.0" y="510.0" type="line"/>
    </contour>
  </outline>
</glyph>
<glyph name="manat" format="2">
  <advance width="757"/>
  <unicode hex="20BC"/>
  <outline>
    <contour>
      <point x="403.0" y="801.0" type="line"/>
      <point x="403.0" y="254.0" type="line"/>
      <point x="353.0" y="254.0" type="line"/>
      <point x="353.0" y="801.0" type="line"/>
    </contour>
    <contour>
      <point x="159.0" y="-7.0" type="line"/>
      <point x="110.0" y="-7.0" type="line"/>
      <point x="110.0" y="425.0" type="line"/>
      <point x="110.0" y="545.0"/>
      <point x="263.0" y="700.0"/>
      <point x="381.0" y="700.0" type="qcurve"/>
      <point x="497.0" y="700.0"/>
      <point x="647.0" y="545.0"/>
      <point x="647.0" y="425.0" type="qcurve"/>
      <point x="647.0" y="-7.0" type="line"/>
      <point x="597.0" y="-7.0" type="line"/>
      <point x="597.0" y="416.0" type="line"/>
      <point x="597.0" y="518.0"/>
      <point x="475.0" y="650.0"/>
      <point x="381.0" y="650.0" type="qcurve"/>
      <point x="284.0" y="650.0"/>
      <point x="159.0" y="518.0"/>
      <point x="159.0" y="416.0" type="qcurve"/>
    </contour>
  </outline>
</glyph>
<glyph name="ruble" format="2">
  <advance width="719"/>
  <unicode hex="20BD"/>
  <outline>
    <contour>
      <point x="199.0" y="333.0" type="line"/>
      <point x="199.0" y="283.0" type="line"/>
      <point x="91.0" y="283.0" type="line"/>
      <point x="91.0" y="333.0" type="line"/>
    </contour>
    <contour>
      <point x="193.0" y="700.0" type="line"/>
      <point x="462.0" y="700.0" type="line" smooth="yes"/>
      <point x="542.0" y="700.0"/>
      <point x="646.0" y="586.0"/>
      <point x="646.0" y="498.0" type="qcurve" smooth="yes"/>
      <point x="646.0" y="404.0"/>
      <point x="542.0" y="283.0"/>
      <point x="462.0" y="283.0" type="qcurve"/>
      <point x="227.0" y="283.0" type="line"/>
      <point x="243.0" y="305.0" type="line"/>
      <point x="243.0" y="0.0" type="line"/>
      <point x="193.0" y="0.0" type="line"/>
    </contour>
    <contour>
      <point x="226.0" y="333.0" type="line"/>
      <point x="471.0" y="333.0" type="line" smooth="yes"/>
      <point x="524.0" y="333.0"/>
      <point x="593.0" y="427.0"/>
      <point x="593.0" y="500.0" type="qcurve" smooth="yes"/>
      <point x="593.0" y="565.0"/>
      <point x="524.0" y="650.0"/>
      <point x="471.0" y="650.0" type="qcurve"/>
      <point x="226.0" y="650.0" type="line"/>
      <point x="243.0" y="671.0" type="line"/>
      <point x="243.0" y="321.0" type="line"/>
    </contour>
    <contour>
      <point x="358.0" y="143.0" type="line"/>
      <point x="90.0" y="143.0" type="line"/>
      <point x="90.0" y="184.0" type="line"/>
      <point x="358.0" y="184.0" type="line"/>
    </contour>
  </outline>
</glyph>
<glyph name="numero" format="2">
  <advance width="1177"/>
  <unicode hex="2116"/>
  <outline>
    <contour>
      <point x="1142.0" y="213.0" type="line"/>
      <point x="796.0" y="213.0" type="line"/>
      <point x="796.0" y="259.0" type="line"/>
      <point x="1142.0" y="259.0" type="line"/>
    </contour>
    <contour>
      <point x="959.0" y="708.0" type="qcurve"/>
      <point x="1033.0" y="708.0"/>
      <point x="1133.0" y="606.0"/>
      <point x="1133.0" y="531.0" type="qcurve"/>
      <point x="1133.0" y="457.0"/>
      <point x="1034.0" y="358.0"/>
      <point x="959.0" y="358.0" type="qcurve"/>
      <point x="885.0" y="358.0"/>
      <point x="788.0" y="456.0"/>
      <point x="788.0" y="531.0" type="qcurve"/>
      <point x="788.0" y="607.0"/>
      <point x="886.0" y="708.0"/>
    </contour>
    <contour>
      <point x="959.0" y="401.0" type="qcurve"/>
      <point x="1014.0" y="401.0"/>
      <point x="1082.0" y="473.0"/>
      <point x="1082.0" y="531.0" type="qcurve"/>
      <point x="1082.0" y="591.0"/>
      <point x="1014.0" y="665.0"/>
      <point x="959.0" y="665.0" type="qcurve"/>
      <point x="905.0" y="665.0"/>
      <point x="838.0" y="591.0"/>
      <point x="838.0" y="531.0" type="qcurve"/>
      <point x="838.0" y="473.0"/>
      <point x="905.0" y="401.0"/>
    </contour>
    <contour>
      <point x="623.0" y="417.0" type="qcurve"/>
      <point x="623.0" y="700.0" type="line"/>
      <point x="673.0" y="700.0" type="line"/>
      <point x="673.0" y="0.0" type="line"/>
      <point x="625.0" y="0.0" type="line"/>
      <point x="136.0" y="641.0" type="line"/>
      <point x="150.0" y="669.0" type="line"/>
      <point x="152.0" y="620.0"/>
      <point x="158.0" y="365.0"/>
      <point x="158.0" y="344.0" type="qcurve"/>
      <point x="158.0" y="0.0" type="line"/>
      <point x="108.0" y="0.0" type="line"/>
      <point x="108.0" y="700.0" type="line"/>
      <point x="154.0" y="700.0" type="line"/>
      <point x="640.0" y="63.0" type="line"/>
      <point x="628.0" y="37.0" type="line"/>
      <point x="624.0" y="79.0"/>
      <point x="624.0" y="301.0"/>
    </contour>
  </outline>
</glyph>
<glyph name="increment" format="2">
  <advance width="707"/>
  <unicode hex="2206"/>
  <note>
increment
</note>
  <outline>
    <contour>
      <point x="352.0" y="717.0" type="line"/>
      <point x="698.0" y="0.0" type="line"/>
      <point x="698.0" y="0.0" type="line"/>
      <point x="10.0" y="0.0" type="line"/>
      <point x="10.0" y="0.0" type="line"/>
      <point x="352.0" y="717.0" type="line"/>
    </contour>
    <contour>
      <point x="364.0" y="620.0" type="line"/>
      <point x="80.0" y="27.0" type="line"/>
      <point x="69.0" y="50.0" type="line"/>
      <point x="635.0" y="50.0" type="line"/>
      <point x="627.0" y="27.0" type="line"/>
      <point x="342.0" y="620.0" type="line"/>
    </contour>
  </outline>
</glyph>
<glyph name="approxequal" format="2">
  <advance width="559"/>
  <unicode hex="2248"/>
  <note>
approxequal
</note>
  <outline>
    <contour>
      <point x="381.0" y="314.0" type="qcurve"/>
      <point x="366.0" y="314.0"/>
      <point x="314.0" y="327.0"/>
      <point x="259.0" y="343.0" type="qcurve" smooth="yes"/>
      <point x="218.0" y="355.0"/>
      <point x="184.0" y="363.0"/>
      <point x="175.0" y="363.0" type="qcurve"/>
      <point x="151.0" y="363.0"/>
      <point x="128.0" y="335.0"/>
      <point x="128.0" y="312.0" type="qcurve"/>
      <point x="84.0" y="312.0" type="line"/>
      <point x="84.0" y="357.89247311827955"/>
      <point x="130.0" y="409.0"/>
      <point x="175.0" y="409.0" type="qcurve"/>
      <point x="190.0" y="409.0"/>
      <point x="241.0" y="396.0"/>
      <point x="297.0" y="380.0" type="qcurve" smooth="yes"/>
      <point x="338.0" y="368.0"/>
      <point x="372.0" y="360.0"/>
      <point x="381.0" y="360.0" type="qcurve"/>
      <point x="405.0" y="360.0"/>
      <point x="428.0" y="388.0"/>
      <point x="428.0" y="411.0" type="qcurve"/>
      <point x="472.0" y="411.0" type="line"/>
      <point x="472.0" y="364.0315789473684"/>
      <point x="426.0" y="314.0"/>
    </contour>
    <contour>
      <point x="381.0" y="134.0" type="qcurve"/>
      <point x="366.0" y="134.0"/>
      <point x="314.0" y="147.0"/>
      <point x="259.0" y="163.0" type="qcurve" smooth="yes"/>
      <point x="218.0" y="175.0"/>
      <point x="184.0" y="183.0"/>
      <point x="175.0" y="183.0" type="qcurve"/>
      <point x="151.0" y="183.0"/>
      <point x="128.0" y="155.0"/>
      <point x="128.0" y="132.0" type="qcurve"/>
      <point x="84.0" y="132.0" type="line"/>
      <point x="84.0" y="177.89247311827958"/>
      <point x="130.0" y="229.0"/>
      <point x="175.0" y="229.0" type="qcurve"/>
      <point x="190.0" y="229.0"/>
      <point x="241.0" y="216.0"/>
      <point x="297.0" y="200.0" type="qcurve" smooth="yes"/>
      <point x="338.0" y="188.0"/>
      <point x="372.0" y="180.0"/>
      <point x="381.0" y="180.0" type="qcurve"/>
      <point x="405.0" y="180.0"/>
      <point x="428.0" y="208.0"/>
      <point x="428.0" y="231.0" type="qcurve"/>
      <point x="472.0" y="231.0" type="line"/>
      <point x="472.0" y="184.03157894736842"/>
      <point x="426.0" y="134.0"/>
    </contour>
  </outline>
</glyph>
<glyph name="notequal" format="2">
  <advance width="566"/>
  <unicode hex="2260"/>
  <note>
notequal
</note>
  <outline>
    <contour>
      <point x="117.0" y="43.0" type="line"/>
      <point x="379.0" y="525.0" type="line"/>
      <point x="435.0" y="525.0" type="line"/>
      <point x="173.0" y="43.0" type="line"/>
    </contour>
    <contour>
      <point x="506.0" y="345.0" type="line"/>
      <point x="60.0" y="345.0" type="line"/>
      <point x="60.0" y="393.0" type="line"/>
      <point x="506.0" y="393.0" type="line"/>
    </contour>
    <contour>
      <point x="60.0" y="175.0" type="line"/>
      <point x="60.0" y="223.0" type="line"/>
      <point x="506.0" y="223.0" type="line"/>
      <point x="506.0" y="175.0" type="line"/>
    </contour>
  </outline>
</glyph>
<glyph name="lessequal" format="2">
  <advance width="627"/>
  <unicode hex="2264"/>
  <note>
lessequal
</note>
  <outline>
    <contour>
      <point x="524.0" y="0.0" type="line"/>
      <point x="73.0" y="0.0" type="line"/>
      <point x="73.0" y="48.0" type="line"/>
      <point x="524.0" y="48.0" type="line"/>
    </contour>
    <contour>
      <point x="516.0" y="205.0" type="line"/>
      <point x="501.0" y="156.0" type="line"/>
      <point x="73.0" y="303.0" type="line"/>
      <point x="73.0" y="356.0" type="line"/>
      <point x="501.0" y="503.0" type="line"/>
      <point x="516.0" y="454.0" type="line"/>
      <point x="98.0" y="316.0" type="line"/>
      <point x="98.0" y="346.0" type="line"/>
    </contour>
  </outline>
</glyph>
<glyph name="greaterequal" format="2">
  <advance width="627"/>
  <unicode hex="2265"/>
  <note>
greaterequal
</note>
  <outline>
    <contour>
      <point x="554.0" y="0.0" type="line"/>
      <point x="103.0" y="0.0" type="line"/>
      <point x="103.0" y="48.0" type="line"/>
      <point x="554.0" y="48.0" type="line"/>
    </contour>
    <contour>
      <point x="111.0" y="454.0" type="line"/>
      <point x="126.0" y="503.0" type="line"/>
      <point x="554.0" y="356.0" type="line"/>
      <point x="554.0" y="303.0" type="line"/>
      <point x="126.0" y="156.0" type="line"/>
      <point x="111.0" y="205.0" type="line"/>
      <point x="529.0" y="346.0" type="line"/>
      <point x="529.0" y="316.0" type="line"/>
    </contour>
  </outline>
</glyph>
<glyph name="I.ss01" format="2">
  <advance width="308"/>
  <note>
I
</note>
  <outline>
    <contour>
      <point x="179.0" y="700.0" type="qcurve"/>
      <point x="179.0" y="0.0" type="line"/>
      <point x="129.0" y="0.0" type="line"/>
      <point x="129.0" y="700.0" type="line"/>
      <point x="142.0" y="700.0"/>
      <point x="166.0" y="700.0"/>
    </contour>
  </outline>
</glyph>
<glyph name="Iogonek.ss01" format="2">
  <advance width="327"/>
  <note>
Iogonek
</note>
  <outline>
    <contour>
      <point x="179.0" y="700.0" type="qcurve"/>
      <point x="179.0" y="0.0" type="line"/>
      <point x="129.0" y="0.0" type="line"/>
      <point x="129.0" y="700.0" type="line"/>
      <point x="142.0" y="700.0"/>
      <point x="166.0" y="700.0"/>
    </contour>
    <contour>
      <point x="144.0" y="-221.0" type="qcurve" smooth="yes"/>
      <point x="100.0" y="-221.0"/>
      <point x="42.0" y="-167.0"/>
      <point x="42.0" y="-124.0" type="qcurve" smooth="yes"/>
      <point x="42.0" y="-84.0"/>
      <point x="86.0" y="-15.0"/>
      <point x="146.0" y="24.0" type="qcurve"/>
      <point x="161.0" y="13.0" type="line"/>
      <point x="179.0" y="0.0" type="line"/>
      <point x="128.0" y="-29.0"/>
      <point x="88.0" y="-89.0"/>
      <point x="88.0" y="-117.0" type="qcurve" smooth="yes"/>
      <point x="88.0" y="-143.0"/>
      <point x="119.0" y="-178.0"/>
      <point x="149.0" y="-178.0" type="qcurve" smooth="yes"/>
      <point x="167.0" y="-178.0"/>
      <point x="196.0" y="-163.0"/>
      <point x="214.0" y="-143.0" type="qcurve"/>
      <point x="247.0" y="-167.0" type="line"/>
      <point x="228.0" y="-192.0"/>
      <point x="180.0" y="-221.0"/>
    </contour>
  </outline>
</glyph>
<glyph name="J.ss01" format="2">
  <advance width="582"/>
  <note>
J
</note>
  <outline>
    <contour>
      <point x="245.0" y="-10.0" type="qcurve"/>
      <point x="180.0" y="-10.0"/>
      <point x="76.0" y="56.0"/>
      <point x="44.0" y="117.0" type="qcurve"/>
      <point x="80.0" y="155.0" type="line"/>
      <point x="112.0" y="94.0"/>
      <point x="199.0" y="40.0"/>
      <point x="246.0" y="40.0" type="qcurve" smooth="yes"/>
      <point x="315.0" y="40.0"/>
      <point x="403.0" y="139.0"/>
      <point x="403.0" y="216.0" type="qcurve"/>
      <point x="403.0" y="700.0" type="line"/>
      <point x="457.0" y="700.0" type="line"/>
      <point x="457.0" y="213.0" type="line"/>
      <point x="457.0" y="116.0"/>
      <point x="338.0" y="-10.0"/>
    </contour>
  </outline>
</glyph>
<glyph name="a.ss01" format="2">
  <advance width="538"/>
  <note>
a
</note>
  <outline>
    <contour>
      <point x="270.0" y="531.0" type="qcurve"/>
      <point x="360.0" y="531.0"/>
      <point x="466.0" y="444.0"/>
      <point x="466.0" y="364.0" type="qcurve"/>
      <point x="466.0" y="0.0" type="line"/>
      <point x="416.0" y="0.0" type="line"/>
      <point x="416.0" y="364.0" type="line"/>
      <point x="416.0" y="416.0"/>
      <point x="345.0" y="481.0"/>
      <point x="268.0" y="481.0" type="qcurve"/>
      <point x="214.0" y="481.0"/>
      <point x="129.0" y="437.0"/>
      <point x="92.0" y="395.0" type="qcurve"/>
      <point x="56.0" y="430.0" type="line"/>
      <point x="103.0" y="481.0"/>
      <point x="208.0" y="531.0"/>
    </contour>
    <contour>
      <point x="274.0" y="319.0" type="qcurve"/>
      <point x="439.0" y="319.0" type="line"/>
      <point x="430.0" y="270.0" type="line"/>
      <point x="261.0" y="270.0" type="line" smooth="yes"/>
      <point x="179.0" y="270.0"/>
      <point x="91.0" y="208.0"/>
      <point x="91.0" y="151.0" type="qcurve"/>
      <point x="91.0" y="101.0"/>
      <point x="164.0" y="40.0"/>
      <point x="220.0" y="40.0" type="qcurve"/>
      <point x="287.0" y="40.0"/>
      <point x="398.0" y="109.0"/>
      <point x="426.0" y="164.0" type="qcurve"/>
      <point x="447.0" y="130.0" type="line"/>
      <point x="411.0" y="67.0"/>
      <point x="285.0" y="-10.0"/>
      <point x="216.0" y="-10.0" type="qcurve"/>
      <point x="140.0" y="-10.0"/>
      <point x="38.0" y="77.0"/>
      <point x="38.0" y="149.0" type="qcurve"/>
      <point x="38.0" y="233.0"/>
      <point x="157.0" y="319.0"/>
    </contour>
  </outline>
</glyph>
<glyph name="acutecomb.case" format="2">
  <outline>
    <contour>
      <point x="220.0" y="683.0" type="line"/>
      <point x="60.0" y="590.0" type="line"/>
      <point x="39.0" y="621.0" type="line"/>
      <point x="182.0" y="732.0" type="line"/>
    </contour>
  </outline>
</glyph>
<glyph name="commaaccentcomb.case" format="2">
  <outline>
    <contour>
      <point x="96.0" y="-187.0" type="qcurve"/>
      <point x="75.0" y="-163.0" type="line"/>
      <point x="99.0" y="-148.0"/>
      <point x="122.0" y="-127.0"/>
      <point x="122.0" y="-114.0" type="qcurve" smooth="yes"/>
      <point x="122.0" y="-108.0"/>
      <point x="115.0" y="-97.0"/>
      <point x="100.0" y="-91.0" type="qcurve" smooth="yes"/>
      <point x="90.0" y="-87.0"/>
      <point x="78.0" y="-69.0"/>
      <point x="78.0" y="-58.0" type="qcurve"/>
      <point x="78.0" y="-44.0"/>
      <point x="99.0" y="-25.0"/>
      <point x="114.0" y="-25.0" type="qcurve"/>
      <point x="142.0" y="-25.0"/>
      <point x="173.0" y="-58.0"/>
      <point x="173.0" y="-86.0" type="qcurve" smooth="yes"/>
      <point x="173.0" y="-119.0"/>
      <point x="136.0" y="-164.0"/>
    </contour>
  </outline>
</glyph>
<glyph name="dblgravecomb.case" format="2">
  <outline>
    <contour>
      <point x="217.0" y="634.0" type="line"/>
      <point x="193.0" y="601.0" type="line"/>
      <point x="39.0" y="702.0" type="line"/>
      <point x="77.0" y="751.0" type="line"/>
    </contour>
    <contour>
      <point x="371.0" y="634.0" type="line"/>
      <point x="347.0" y="601.0" type="line"/>
      <point x="193.0" y="702.0" type="line"/>
      <point x="231.0" y="751.0" type="line"/>
    </contour>
  </outline>
</glyph>
<glyph name="dieresiscomb.case" format="2">
  <outline>
    <contour>
      <point x="122.0" y="674.0" type="qcurve" smooth="yes"/>
      <point x="122.0" y="654.0"/>
      <point x="98.0" y="629.0"/>
      <point x="76.0" y="629.0" type="qcurve" smooth="yes"/>
      <point x="54.0" y="629.0"/>
      <point x="30.0" y="653.0"/>
      <point x="30.0" y="674.0" type="qcurve" smooth="yes"/>
      <point x="30.0" y="694.0"/>
      <point x="54.0" y="719.0"/>
      <point x="76.0" y="719.0" type="qcurve" smooth="yes"/>
      <point x="98.0" y="719.0"/>
      <point x="122.0" y="695.0"/>
    </contour>
    <contour>
      <point x="322.0" y="674.0" type="qcurve" smooth="yes"/>
      <point x="322.0" y="654.0"/>
      <point x="298.0" y="629.0"/>
      <point x="276.0" y="629.0" type="qcurve" smooth="yes"/>
      <point x="254.0" y="629.0"/>
      <point x="230.0" y="653.0"/>
      <point x="230.0" y="674.0" type="qcurve" smooth="yes"/>
      <point x="230.0" y="694.0"/>
      <point x="254.0" y="719.0"/>
      <point x="276.0" y="719.0" type="qcurve" smooth="yes"/>
      <point x="298.0" y="719.0"/>
      <point x="322.0" y="695.0"/>
    </contour>
  </outline>
</glyph>
<glyph name="fehDotless-ar.fina" format="2">
  <advance width="1072"/>
  <outline>
    <contour>
      <point x="694.0" y="102.0" type="line"/>
      <point x="578.0" y="0.0" type="line"/>
      <point x="292.0" y="0.0" type="line" smooth="yes"/>
      <point x="169.0" y="0.0"/>
      <point x="30.0" y="107.0"/>
      <point x="30.0" y="202.0" type="qcurve" smooth="yes"/>
      <point x="30.0" y="253.0"/>
      <point x="62.0" y="359.0"/>
      <point x="94.0" y="413.0" type="qcurve"/>
      <point x="174.0" y="377.0" type="line"/>
      <point x="153.0" y="331.0"/>
      <point x="134.0" y="260.0"/>
      <point x="134.0" y="226.0" type="qcurve" smooth="yes"/>
      <point x="134.0" y="162.0"/>
      <point x="225.0" y="102.0"/>
      <point x="324.0" y="102.0" type="qcurve"/>
    </contour>
    <component base="fehDotless-ar.medi" xOffset="511"/>
  </outline>
</glyph>
<glyph name="four.dnom" format="2">
  <advance width="390"/>
  <outline>
    <contour>
      <point x="279.0" y="0.0" type="line"/>
      <point x="239.0" y="0.0" type="line"/>
      <point x="239.0" y="101.0" type="line"/>
      <point x="239.0" y="115.0" type="line"/>
      <point x="239.0" y="326.0" type="line"/>
      <point x="258.0" y="317.0" type="line"/>
      <point x="99.0" y="116.0" type="line"/>
      <point x="88.0" y="121.0" type="line"/>
      <point x="340.0" y="121.0" type="line"/>
      <point x="340.0" y="83.0" type="line"/>
      <point x="55.0" y="83.0" type="line"/>
      <point x="47.0" y="116.0" type="line"/>
      <point x="239.0" y="356.0" type="line"/>
      <point x="279.0" y="356.0" type="line"/>
    </contour>
  </outline>
</glyph>
<glyph name="g.ss01" format="2">
  <advance width="580"/>
  <outline>
    <contour>
      <point x="85.0" y="357.0" type="qcurve"/>
      <point x="85.0" y="429.0"/>
      <point x="199.0" y="531.0"/>
      <point x="280.0" y="531.0" type="qcurve"/>
      <point x="295.0" y="531.0"/>
      <point x="335.0" y="524.0"/>
      <point x="377.0" y="511.0" type="qcurve"/>
      <point x="318.0" y="520.0" type="line"/>
      <point x="521.0" y="520.0" type="line"/>
      <point x="521.0" y="472.0" type="line"/>
      <point x="396.0" y="472.0" type="line"/>
      <point x="406.0" y="495.0" type="line"/>
      <point x="456.0" y="437.0"/>
      <point x="475.0" y="386.0"/>
      <point x="475.0" y="357.0" type="qcurve"/>
      <point x="475.0" y="284.0"/>
      <point x="361.0" y="180.0"/>
      <point x="280.0" y="180.0" type="qcurve" smooth="yes"/>
      <point x="189.0" y="180.0" type="line"/>
      <point x="165.0" y="180.0"/>
      <point x="134.0" y="150.0"/>
      <point x="134.0" y="130.0" type="qcurve"/>
      <point x="134.0" y="105.0"/>
      <point x="160.0" y="79.0"/>
      <point x="183.0" y="79.0" type="qcurve"/>
      <point x="288.0" y="79.0" type="line" smooth="yes"/>
      <point x="395.0" y="79.0"/>
      <point x="517.0" y="-4.0"/>
      <point x="517.0" y="-76.0" type="qcurve" smooth="yes"/>
      <point x="517.0" y="-142.0"/>
      <point x="395.0" y="-231.0"/>
      <point x="288.0" y="-231.0" type="qcurve" smooth="yes"/>
      <point x="176.0" y="-231.0"/>
      <point x="59.0" y="-142.0"/>
      <point x="59.0" y="-76.0" type="qcurve" smooth="yes"/>
      <point x="59.0" y="-35.0"/>
      <point x="103.0" y="28.0"/>
      <point x="168.0" y="62.0" type="qcurve"/>
      <point x="172.0" y="34.0" type="line"/>
      <point x="134.92776123633539" y="43.01757159116167"/>
      <point x="83.0" y="88.84883720930233"/>
      <point x="83.0" y="123.0" type="qcurve"/>
      <point x="83.0" y="158.0625"/>
      <point x="132.0" y="214.0"/>
      <point x="198.0" y="222.0" type="qcurve"/>
      <point x="193.0" y="194.0" type="line"/>
      <point x="120.0" y="248.0"/>
      <point x="85.0" y="317.0"/>
    </contour>
    <contour>
      <point x="280.0" y="481.0" type="qcurve"/>
      <point x="220.0" y="481.0"/>
      <point x="138.0" y="409.0"/>
      <point x="138.0" y="357.0" type="qcurve"/>
      <point x="138.0" y="302.0"/>
      <point x="220.0" y="230.0"/>
      <point x="280.0" y="230.0" type="qcurve" smooth="yes"/>
      <point x="340.0" y="230.0"/>
      <point x="422.0" y="300.0"/>
      <point x="422.0" y="357.0" type="qcurve"/>
      <point x="422.0" y="408.0"/>
      <point x="340.0" y="481.0"/>
    </contour>
    <contour>
      <point x="287.0" y="-181.0" type="qcurve" smooth="yes"/>
      <point x="368.0" y="-181.0"/>
      <point x="464.0" y="-121.0"/>
      <point x="464.0" y="-76.0" type="qcurve" smooth="yes"/>
      <point x="464.0" y="-27.0"/>
      <point x="368.0" y="29.0"/>
      <point x="287.0" y="29.0" type="qcurve" smooth="yes"/>
      <point x="208.0" y="29.0"/>
      <point x="112.0" y="-27.0"/>
      <point x="112.0" y="-76.0" type="qcurve" smooth="yes"/>
      <point x="112.0" y="-121.0"/>
      <point x="208.0" y="-181.0"/>
    </contour>
  </outline>
</glyph>
<glyph name="gravecomb.case" format="2">
  <outline>
    <contour>
      <point x="225.0" y="621.0" type="line"/>
      <point x="204.0" y="590.0" type="line"/>
      <point x="44.0" y="683.0" type="line"/>
      <point x="82.0" y="732.0" type="line"/>
    </contour>
  </outline>
</glyph>
<glyph name="hookabovecomb.case" format="2">
  <outline>
    <contour>
      <point x="80.0" y="682.0" type="qcurve"/>
      <point x="56.0" y="713.0" type="line"/>
      <point x="80.0" y="738.0"/>
      <point x="129.0" y="759.0"/>
      <point x="155.0" y="759.0" type="qcurve" smooth="yes"/>
      <point x="194.0" y="759.0"/>
      <point x="237.0" y="720.6438356164383"/>
      <point x="237.0" y="689.0" type="qcurve" smooth="yes"/>
      <point x="237.0" y="671.3529411764706"/>
      <point x="221.20791689448265" y="644.3008335786736"/>
      <point x="207.0" y="629.0" type="qcurve" smooth="yes"/>
      <point x="195.75636858635474" y="616.8914738622283"/>
      <point x="183.0" y="593.0"/>
      <point x="183.0" y="578.0" type="qcurve"/>
      <point x="139.0" y="578.0" type="line"/>
      <point x="139.0" y="592.5531914893617"/>
      <point x="153.0" y="624.0"/>
      <point x="163.0" y="635.0" type="qcurve" smooth="yes"/>
      <point x="175.66805485695969" y="649.616986373415"/>
      <point x="194.0" y="672.0"/>
      <point x="194.0" y="685.0" type="qcurve" smooth="yes"/>
      <point x="194.0" y="701.0"/>
      <point x="172.04545454545456" y="718.0"/>
      <point x="152.0" y="718.0" type="qcurve" smooth="yes"/>
      <point x="135.45945945945945" y="718.0"/>
      <point x="100.71815984958505" y="702.718159849585"/>
    </contour>
  </outline>
</glyph>
<glyph name="horncomb.case" format="2">
  <outline>
    <contour>
      <point x="74.0" y="483.0" type="qcurve"/>
      <point x="74.0" y="520.0" type="line"/>
      <point x="136.0" y="520.0"/>
      <point x="197.0" y="575.0"/>
      <point x="197.0" y="629.0" type="qcurve"/>
      <point x="245.0" y="629.0" type="line"/>
      <point x="245.0" y="562.0833333333334"/>
      <point x="155.0" y="483.0"/>
    </contour>
  </outline>
</glyph>
<glyph name="macronbelowcomb.case" format="2">
  <outline>
    <contour>
      <point x="349.0" y="-131.0" type="line"/>
      <point x="75.0" y="-131.0" type="line"/>
      <point x="75.0" y="-107.0" type="line"/>
      <point x="75.0" y="-85.0" type="line"/>
      <point x="349.0" y="-85.0" type="line"/>
      <point x="349.0" y="-111.0" type="line"/>
    </contour>
  </outline>
</glyph>
<glyph name="ogonekcomb.case" format="2">
  <outline>
    <contour>
      <point x="153.0" y="-221.0" type="qcurve" smooth="yes"/>
      <point x="105.0" y="-221.0"/>
      <point x="38.0" y="-163.0"/>
      <point x="38.0" y="-121.0" type="qcurve" smooth="yes"/>
      <point x="38.0" y="-71.68874172185431"/>
      <point x="128.33738153503583" y="-1.8429430785177985"/>
      <point x="186.0" y="25.0" type="qcurve"/>
      <point x="214.0" y="17.0" type="line"/>
      <point x="214.0" y="0.0" type="line"/>
      <point x="162.0" y="-22.0"/>
      <point x="86.0" y="-83.0"/>
      <point x="86.0" y="-119.0" type="qcurve" smooth="yes"/>
      <point x="86.0" y="-144.0"/>
      <point x="126.0" y="-178.0"/>
      <point x="155.0" y="-178.0" type="qcurve" smooth="yes"/>
      <point x="177.0" y="-178.0"/>
      <point x="212.0" y="-160.0"/>
      <point x="224.0" y="-146.0" type="qcurve"/>
      <point x="257.0" y="-170.0" type="line"/>
      <point x="238.0" y="-195.0"/>
      <point x="187.0" y="-221.0"/>
    </contour>
  </outline>
</glyph>
<glyph name="seven.dnom" format="2">
  <advance width="326"/>
  <outline>
    <contour>
      <point x="146.0" y="0.0" type="line"/>
      <point x="108.0" y="0.0" type="line"/>
      <point x="106.0" y="9.0" type="line"/>
      <point x="252.0" y="326.0" type="line"/>
      <point x="257.0" y="305.0" type="line"/>
      <point x="59.0" y="305.0" type="line"/>
      <point x="59.0" y="344.0" type="line"/>
      <point x="276.0" y="344.0" type="line"/>
      <point x="292.0" y="318.0" type="line"/>
    </contour>
  </outline>
</glyph>
<glyph name="six.dnom" format="2">
  <advance width="343"/>
  <outline>
    <contour>
      <point x="293.0" y="106.0" type="qcurve"/>
      <point x="293.0" y="57.0"/>
      <point x="224.90983606557376" y="-11.0"/>
      <point x="176.0" y="-11.0" type="qcurve"/>
      <point x="114.0" y="-11.0"/>
      <point x="46.0" y="66.0"/>
      <point x="46.0" y="134.0" type="qcurve"/>
      <point x="46.0" y="232.0"/>
      <point x="127.0" y="358.0"/>
      <point x="200.0" y="358.0" type="qcurve"/>
      <point x="229.0" y="358.0"/>
      <point x="271.0" y="339.0"/>
      <point x="284.0" y="326.0" type="qcurve"/>
      <point x="266.0" y="291.0" type="line"/>
      <point x="250.0" y="307.0"/>
      <point x="213.0" y="320.0"/>
      <point x="196.0" y="320.0" type="qcurve"/>
      <point x="153.0" y="320.0"/>
      <point x="89.0" y="227.0"/>
      <point x="83.0" y="146.0" type="qcurve"/>
      <point x="73.0" y="144.0" type="line"/>
      <point x="82.0" y="184.0"/>
      <point x="143.0" y="223.0"/>
      <point x="176.0" y="223.0" type="qcurve"/>
      <point x="225.86885245901638" y="223.0"/>
      <point x="293.0" y="156.0"/>
    </contour>
    <contour>
      <point x="90.0" y="108.0" type="qcurve"/>
      <point x="90.0" y="73.0"/>
      <point x="139.0" y="27.0"/>
      <point x="174.0" y="27.0" type="qcurve"/>
      <point x="207.88235294117646" y="27.0"/>
      <point x="254.0" y="72.0"/>
      <point x="254.0" y="106.0" type="qcurve"/>
      <point x="254.0" y="139.0"/>
      <point x="207.88235294117646" y="185.0"/>
      <point x="174.0" y="185.0" type="qcurve"/>
      <point x="139.0" y="185.0"/>
      <point x="90.0" y="140.0"/>
    </contour>
  </outline>
</glyph>
<glyph name="tildecomb.case" format="2">
  <outline>
    <contour>
      <point x="110.0" y="593.0" type="qcurve"/>
      <point x="64.0" y="593.0" type="line"/>
      <point x="64.0" y="634.0"/>
      <point x="110.0" y="682.0"/>
      <point x="143.0" y="682.0" type="qcurve" smooth="yes"/>
      <point x="164.75" y="682.0"/>
      <point x="206.1330614288686" y="665.5014529712978"/>
      <point x="230.0" y="655.0" type="qcurve" smooth="yes"/>
      <point x="241.99803316375468" y="649.4624462321133"/>
      <point x="267.1320754716981" y="638.0"/>
      <point x="278.0" y="638.0" type="qcurve"/>
      <point x="293.0" y="638.0"/>
      <point x="315.0" y="659.0"/>
      <point x="315.0" y="681.0" type="qcurve"/>
      <point x="361.0" y="681.0" type="line"/>
      <point x="361.0" y="640.0"/>
      <point x="315.0" y="592.0"/>
      <point x="282.0" y="592.0" type="qcurve"/>
      <point x="260.25" y="592.0"/>
      <point x="218.8669385711314" y="608.4985470287022"/>
      <point x="195.0" y="619.0" type="qcurve" smooth="yes"/>
      <point x="183.00196683624532" y="624.5375537678867"/>
      <point x="157.8679245283019" y="636.0"/>
      <point x="147.0" y="636.0" type="qcurve" smooth="yes"/>
      <point x="132.0" y="636.0"/>
      <point x="110.0" y="614.0"/>
    </contour>
  </outline>
</glyph>
<glyph name="two.dnom" format="2">
  <advance width="346"/>
  <outline>
    <contour>
      <point x="302.0" y="0.0" type="line"/>
      <point x="69.0" y="0.0" type="line"/>
      <point x="56.0" y="37.0" type="line"/>
      <point x="135.0" y="123.0" type="line" smooth="yes"/>
      <point x="151.0" y="140.0"/>
      <point x="182.2557329330315" y="172.86369478060743"/>
      <point x="192.0" y="184.0" type="qcurve" smooth="yes"/>
      <point x="218.0" y="212.0"/>
      <point x="243.0" y="248.8082191780822"/>
      <point x="243.0" y="267.0" type="qcurve"/>
      <point x="243.0" y="292.0"/>
      <point x="210.0" y="321.0"/>
      <point x="183.0" y="321.0" type="qcurve"/>
      <point x="153.0" y="321.0"/>
      <point x="105.0" y="289.0"/>
      <point x="82.0" y="251.0" type="qcurve"/>
      <point x="51.0" y="273.0" type="line"/>
      <point x="75.0" y="313.0"/>
      <point x="141.0" y="361.0"/>
      <point x="179.0" y="361.0" type="qcurve"/>
      <point x="228.0" y="361.0"/>
      <point x="286.0" y="307.0"/>
      <point x="286.0" y="265.0" type="qcurve"/>
      <point x="286.0" y="230.14084507042253"/>
      <point x="227.0" y="162.0"/>
      <point x="169.0" y="100.0" type="qcurve"/>
      <point x="102.0" y="28.0" type="line"/>
      <point x="107.0" y="40.0" type="line"/>
      <point x="302.0" y="40.0" type="line"/>
    </contour>
  </outline>
</glyph>
